<svg version="1.1" id="Layer_1" xmlns="http://www.w3.org/2000/svg" xmlns:xlink="http://www.w3.org/1999/xlink" x="0px" y="0px"
	 width="100%" viewBox="0 0 1080 1080" enable-background="new 0 0 1080 1080" xml:space="preserve">
<path fill="#000000" opacity="1.000000" stroke="none" 
	d="
M469.000000,1081.000000 
	C314.184479,1081.000000 159.868942,1080.985596 5.553487,1081.088501 
	C1.900690,1081.090942 0.897187,1080.428711 0.898374,1076.554443 
	C1.007762,719.595642 1.009906,362.636841 0.880476,5.678097 
	C0.878951,1.471965 1.916128,0.898350 5.820880,0.899534 
	C362.612976,1.007734 719.405151,1.008009 1076.197266,0.896944 
	C1080.139893,0.895717 1081.118774,1.528858 1081.117188,5.696265 
	C1080.990356,362.488403 1080.989014,719.280579 1081.125854,1076.072754 
	C1081.127563,1080.497559 1079.967163,1081.099121 1075.928467,1081.096924 
	C873.785645,1080.986572 671.642822,1081.000000 469.000000,1081.000000 
z"/>
<path fill="#F86F72" opacity="1.000000" stroke="none" 
	d="
M339.969543,528.155029 
	C338.390289,523.668335 336.642120,519.665649 335.989075,515.300842 
	C335.019257,508.818939 337.813446,503.533081 341.119781,498.334015 
	C344.434845,493.121307 347.681915,487.859619 350.771942,482.511444 
	C353.186340,478.332581 353.966553,473.690247 354.011627,468.881958 
	C354.242859,444.231812 351.169403,449.424591 368.601379,435.341431 
	C379.481995,426.551086 385.483826,415.826080 388.961578,402.952576 
	C390.363129,397.764404 393.444641,394.287354 398.379242,391.791138 
	C404.206085,388.843628 410.365326,386.832672 416.347931,384.361786 
	C424.644165,380.935333 430.154968,374.785583 435.132507,367.683746 
	C438.839294,362.394989 442.425171,356.566772 449.565308,355.253052 
	C453.264862,354.572327 457.263031,353.953552 460.792847,354.231842 
	C474.852570,355.340302 486.560333,350.247223 496.750214,341.479431 
	C503.415405,335.744476 510.259460,335.166321 518.124451,337.512268 
	C523.710693,339.178497 529.336304,340.895569 535.067810,341.844513 
	C541.833618,342.964661 548.736023,342.392029 554.988220,339.411713 
	C566.750977,333.804565 577.121033,335.539246 587.273376,343.495209 
	C593.099243,348.060760 599.629700,351.954224 607.087830,353.540344 
	C612.329041,354.654938 617.765564,354.432343 622.976990,353.854126 
	C632.752258,352.769470 638.600342,358.029633 644.028259,364.892456 
	C648.912476,371.067810 653.740967,377.297668 660.333069,381.937469 
	C665.164124,385.337677 670.794250,386.511261 676.191772,387.780884 
	C685.402832,389.947571 689.861511,396.071747 693.020569,404.149658 
	C696.022583,411.825897 698.140747,419.942139 703.746765,426.408203 
	C707.407715,430.630676 711.879578,434.007721 716.515808,436.765839 
	C726.066711,442.447601 727.853027,451.301636 727.957336,461.069183 
	C728.032837,468.142212 728.209595,475.113739 730.898560,481.831451 
	C733.170715,487.507812 736.802063,492.404358 740.654907,496.844421 
	C746.715881,503.828949 746.746033,511.127808 744.454895,519.252502 
	C742.784973,525.174500 741.031494,531.130859 740.116089,537.192810 
	C739.018250,544.462585 740.708130,551.560974 743.686096,558.236206 
	C748.073669,568.071045 746.447510,576.900146 740.166504,585.403564 
	C734.663208,592.854248 729.668762,600.626221 728.384460,610.173462 
	C727.647461,615.651733 727.796265,621.151001 728.114563,626.586182 
	C728.522583,633.552368 725.043701,637.881714 720.138428,642.040466 
	C713.793518,647.419739 706.679993,651.916687 701.568542,658.769836 
	C697.534058,664.179199 695.875793,670.565430 694.352234,676.698608 
	C692.089905,685.805786 686.352417,690.149841 678.205139,693.114929 
	C669.414551,696.314209 660.046448,698.731262 653.488342,706.123169 
	C650.688354,709.279114 648.065063,712.708984 645.995605,716.372559 
	C640.936218,725.329163 632.947998,728.286011 623.355957,727.948242 
	C617.699646,727.749023 612.106140,728.246155 606.590332,729.116272 
	C600.380554,730.095947 594.699829,733.008362 590.288391,737.380493 
	C581.168640,746.418640 570.886292,747.729065 559.214905,743.692017 
	C554.167358,741.946045 549.000610,740.472473 543.616821,739.992737 
	C537.064514,739.408936 531.039429,741.430237 524.974976,743.476440 
	C520.990112,744.820984 516.952393,746.428345 512.830200,746.842957 
	C507.348328,747.394409 503.127319,743.512329 498.632843,741.034607 
	C494.365540,738.682068 490.487152,735.635437 486.307129,733.110291 
	C480.611633,729.669617 474.263641,728.341187 467.691589,728.021057 
	C465.198273,727.899536 462.628387,727.632690 460.206116,728.064453 
	C449.125702,730.039368 442.880188,723.481079 436.885254,715.715576 
	C429.848389,706.600464 422.397339,697.565247 410.070221,695.606934 
	C396.855194,693.507385 390.373718,684.839172 387.106354,672.996643 
	C383.740204,660.796204 376.323517,651.885864 365.758698,645.370789 
	C358.782135,641.068420 355.293304,635.452881 354.683746,626.761108 
	C353.998444,616.990051 355.483734,606.565063 349.840027,597.545471 
	C347.765198,594.229553 345.899933,590.640625 343.220673,587.871338 
	C335.119659,579.498352 335.125031,570.207092 338.455322,559.837891 
	C341.723694,549.661377 344.398804,539.227417 339.969543,528.155029 
z"/>
<path fill="#000000" opacity="1.000000" stroke="none" 
	d="
M600.360107,355.014130 
	C607.875366,358.709259 613.385986,364.516266 619.008362,369.872437 
	C626.347046,376.863800 635.203918,378.919556 644.396118,379.826050 
	C652.973389,380.671906 658.100037,384.781036 662.188477,392.067810 
	C666.684998,400.082031 670.106384,409.136993 678.685425,414.183838 
	C681.905273,416.077972 684.971680,418.490265 688.447388,419.643494 
	C698.500427,422.978912 701.701355,430.817169 702.994446,440.167236 
	C704.653076,452.160614 708.499268,463.102112 718.401367,470.910828 
	C726.271057,477.116760 728.350342,484.614838 726.227051,494.514893 
	C723.684265,506.371399 723.895081,518.387085 731.486267,528.933533 
	C737.518921,537.314758 736.225769,545.564758 731.542480,553.988525 
	C726.770508,562.571899 723.796570,571.649170 724.996033,581.681396 
	C725.424194,585.262695 725.271729,589.018738 726.334900,592.395813 
	C728.292236,598.613464 725.976929,603.153992 722.006714,607.535645 
	C717.480164,612.531494 713.071411,617.638672 708.738220,622.803772 
	C703.767822,628.728455 702.692017,636.179565 702.178589,643.371826 
	C701.493103,652.973389 696.559082,658.744629 688.498230,662.925415 
	C683.464233,665.536377 678.497009,668.404114 673.918640,671.732727 
	C668.329712,675.796021 664.887329,681.774597 662.543213,688.106628 
	C658.985718,697.716248 651.621460,701.823853 642.248840,702.922485 
	C629.373535,704.431763 618.276123,708.932434 610.015442,719.415955 
	C604.327942,726.633972 597.095276,728.125000 588.018250,726.259338 
	C574.556152,723.492432 561.272095,724.545837 549.516479,732.955872 
	C544.012756,736.893188 538.276184,736.333923 532.470276,733.767639 
	C529.204346,732.324097 525.886597,730.963318 522.744507,729.280823 
	C513.939331,724.566040 504.681152,723.678711 495.113892,725.964783 
	C484.800934,728.429077 476.348541,726.133179 469.235199,717.865601 
	C460.654968,707.893127 449.559509,702.545044 436.263428,701.978271 
	C426.518585,701.562988 421.549988,694.750793 418.138245,687.008911 
	C412.459503,674.122864 402.677429,665.933960 390.125061,660.664734 
	C383.595947,657.923889 380.997559,652.875732 379.975830,646.364014 
	C377.678223,631.721069 373.576996,617.903748 360.945221,608.472046 
	C353.999390,603.285828 354.087952,595.943298 355.263519,588.763062 
	C357.227478,576.767578 358.243774,565.107178 351.064667,554.317688 
	C350.706940,553.780090 350.553223,553.106018 350.191956,552.571533 
	C345.368469,545.435303 345.197784,538.124268 349.141602,530.539490 
	C350.786469,527.376099 352.049133,524.015686 353.646027,520.825195 
	C357.558807,513.008057 357.443085,504.909485 356.347198,496.443329 
	C355.475159,489.706390 352.561798,482.508972 358.249664,476.212494 
	C362.773712,471.204376 367.093781,466.012604 371.569244,460.959808 
	C376.055939,455.894348 378.193329,449.888245 379.017761,443.284790 
	C379.400208,440.221497 380.056519,437.192200 380.432831,434.128357 
	C381.674194,424.021118 390.104218,421.004913 397.419250,417.052490 
	C407.361115,411.680817 415.766602,404.888367 419.535065,393.821991 
	C422.884003,383.987579 430.373413,380.218445 439.846649,379.013031 
	C452.234192,377.436768 463.311646,373.309937 471.378784,363.140320 
	C477.623993,355.267456 485.473602,353.931732 495.180847,355.739288 
	C506.302521,357.810211 517.708252,358.228149 527.824890,351.088226 
	C529.923828,349.606903 532.456909,348.720947 534.833069,347.656891 
	C538.846130,345.859741 542.774109,345.227356 547.038208,347.391998 
	C551.942078,349.881531 557.144470,351.775452 562.156494,354.061188 
	C571.772644,358.446625 581.705261,357.460388 591.567688,355.568115 
	C594.416138,355.021576 597.162231,355.310425 600.360107,355.014130 
z"/>
<path fill="#EEEDED" opacity="1.000000" stroke="none" 
	d="
M692.998352,541.000000 
	C692.998657,570.666199 692.968567,599.832397 693.046448,628.998413 
	C693.054199,631.901550 692.330933,633.615906 689.598083,635.250793 
	C667.706726,648.346619 645.946899,661.662964 624.182312,674.969849 
	C602.010559,688.525574 579.885559,702.157898 557.723206,715.729004 
	C554.174194,717.902283 550.375183,719.701050 546.980164,722.083923 
	C542.610107,725.151123 538.859680,723.854065 534.866455,721.416138 
	C513.282166,708.238525 491.631622,695.169495 470.043915,681.997437 
	C448.039856,668.571411 426.083344,655.067627 404.103088,641.602661 
	C400.671356,639.500427 397.355103,637.150330 393.743652,635.419250 
	C390.727051,633.973511 389.943237,631.974792 389.947144,628.826538 
	C390.020508,569.827576 390.026428,510.828522 389.924774,451.829651 
	C389.919769,448.936310 390.913330,447.528625 393.292603,446.098389 
	C412.115112,434.784119 430.824921,423.282684 449.606476,411.899933 
	C466.319397,401.770935 483.096924,391.748596 499.813110,381.624969 
	C511.065247,374.810486 522.291382,367.951752 533.464539,361.008850 
	C537.619263,358.427124 544.283203,358.263184 548.240295,360.684784 
	C567.859680,372.691162 587.529480,384.615417 607.167908,396.590729 
	C629.398315,410.146515 651.612793,423.728363 673.837646,437.293274 
	C679.065796,440.484253 684.181335,443.893646 689.594727,446.733459 
	C692.446655,448.229614 693.050049,450.110138 693.042847,453.000671 
	C692.970459,482.166962 692.998474,511.333527 692.998352,541.000000 
z"/>
<path fill="#000000" opacity="1.000000" stroke="none" 
	d="
M416.980865,563.020752 
	C424.248962,558.644165 431.139526,554.293823 438.556335,549.611145 
	C438.556335,563.850586 438.556335,577.644470 438.556335,591.734436 
	C427.258301,584.868286 415.814514,577.913574 404.033478,570.753906 
	C408.408539,568.071472 412.505920,565.559204 416.980865,563.020752 
z"/>
<path fill="#000000" opacity="1.000000" stroke="none" 
	d="
M431.678162,468.217529 
	C422.292450,462.633636 413.216644,457.264923 403.970490,451.795441 
	C415.549316,444.736603 426.797241,437.879486 438.545959,430.717072 
	C438.545959,444.848328 438.545959,458.618469 438.545959,472.576263 
	C436.492401,471.278717 434.240234,469.855713 431.678162,468.217529 
z"/>
<path fill="#000000" opacity="1.000000" stroke="none" 
	d="
M435.111633,529.992126 
	C424.593811,523.776367 414.466827,517.587341 404.051971,511.222382 
	C415.552368,504.263702 427.094299,497.279907 439.001282,490.075195 
	C439.001282,503.459198 439.012573,516.382629 438.976257,529.305908 
	C438.973816,530.181580 439.536621,531.495850 438.225311,531.828125 
	C436.865601,532.172546 436.459595,530.571655 435.111633,529.992126 
z"/>
<path fill="#000000" opacity="1.000000" stroke="none" 
	d="
M439.001587,623.013916 
	C439.001587,632.600891 439.001587,641.690918 439.001587,651.498596 
	C426.979797,644.193909 415.635559,637.300842 404.070404,630.273621 
	C415.480682,623.343628 426.935852,616.386353 439.001587,609.058228 
	C439.001587,613.783936 439.001587,618.150452 439.001587,623.013916 
z"/>
<path fill="#000000" opacity="1.000000" stroke="none" 
	d="
M404.640411,558.749634 
	C402.647125,559.797485 400.967194,560.629761 399.141418,561.534302 
	C399.141418,547.865356 399.141418,534.271423 399.141418,519.961853 
	C410.671356,526.928284 421.949188,533.742371 433.532867,540.741272 
	C423.619293,546.913330 414.286560,552.723694 404.640411,558.749634 
z"/>
<path fill="#000000" opacity="1.000000" stroke="none" 
	d="
M447.997498,452.999390 
	C447.997498,445.409943 447.997498,438.320282 447.997498,430.455475 
	C460.029480,437.773163 471.357666,444.662811 482.583344,451.490143 
	C471.319214,458.344269 460.012329,465.224396 447.997498,472.535339 
	C447.997498,465.677277 447.997498,459.588226 447.997498,452.999390 
z"/>
<path fill="#000000" opacity="1.000000" stroke="none" 
	d="
M453.924316,587.984985 
	C451.952423,589.028320 450.365509,590.044067 448.314392,591.356995 
	C448.314392,577.313538 448.314392,563.817749 448.314392,549.759216 
	C459.842896,556.739746 471.166077,563.595886 482.498627,570.457764 
	C473.163483,576.252930 463.736359,582.105225 453.924316,587.984985 
z"/>
<path fill="#000000" opacity="1.000000" stroke="none" 
	d="
M481.684570,510.331970 
	C476.253510,516.035034 468.947357,518.941650 462.437347,523.089111 
	C457.773285,526.060425 453.314972,529.412231 448.126526,531.678711 
	C448.126526,517.757080 448.126526,504.153320 448.126526,490.265289 
	C459.372589,496.948547 470.398285,503.500854 481.684570,510.331970 
z"/>
<path fill="#000000" opacity="1.000000" stroke="none" 
	d="
M398.997498,494.813904 
	C398.997498,483.380737 398.997498,472.423126 398.997498,460.290039 
	C410.743469,467.416931 421.853729,474.158112 433.577301,481.271423 
	C421.816467,488.424744 410.734131,495.165375 398.997498,502.303955 
	C398.997498,499.428131 398.997498,497.358795 398.997498,494.813904 
z"/>
<path fill="#000000" opacity="1.000000" stroke="none" 
	d="
M479.776123,631.697510 
	C469.138763,638.246887 458.758453,644.509888 448.089600,650.947021 
	C448.089600,636.826111 448.089600,623.212585 448.089600,609.093933 
	C459.112976,615.808594 469.930878,622.385071 480.729584,628.992981 
	C482.048065,629.799744 482.000183,629.877991 479.776123,631.697510 
z"/>
<path fill="#000000" opacity="1.000000" stroke="none" 
	d="
M509.963348,434.981323 
	C505.654816,437.407928 501.723846,439.809113 497.269897,442.529755 
	C497.269897,428.394318 497.269897,415.007294 497.269897,401.047272 
	C505.018707,405.679138 512.679321,410.254944 520.336182,414.837067 
	C522.814026,416.319916 525.333618,417.742188 527.730286,419.347229 
	C528.770996,420.044189 530.881165,420.181458 530.660400,421.472778 
	C530.458618,422.652832 528.784241,423.426086 527.455994,424.201141 
	C521.639587,427.595245 516.027283,431.339020 509.963348,434.981323 
z"/>
<path fill="#000000" opacity="1.000000" stroke="none" 
	d="
M568.032593,577.977417 
	C560.769043,582.373291 553.881653,586.742798 546.435791,591.466492 
	C546.435791,577.364685 546.435791,563.802734 546.435791,549.803955 
	C558.007263,556.822021 569.351990,563.702576 580.543030,570.489929 
	C576.586365,572.922791 572.497498,575.436951 568.032593,577.977417 
z"/>
<path fill="#000000" opacity="1.000000" stroke="none" 
	d="
M424.293243,594.740967 
	C427.369629,596.785461 430.778992,597.691589 432.950226,600.682678 
	C421.782501,607.458862 410.732483,614.163574 399.224518,621.146179 
	C399.224518,607.131592 399.224518,593.777527 399.224518,579.437439 
	C407.735840,584.616882 415.865692,589.564270 424.293243,594.740967 
z"/>
<path fill="#000000" opacity="1.000000" stroke="none" 
	d="
M545.998352,496.265564 
	C545.998352,494.043793 545.998352,492.284149 545.998352,490.048340 
	C557.653687,497.122192 568.844116,503.913849 580.587280,511.040955 
	C568.937561,518.098816 557.688599,524.913879 545.998352,531.996338 
	C545.998352,519.891602 545.998352,508.309601 545.998352,496.265564 
z"/>
<path fill="#000000" opacity="1.000000" stroke="none" 
	d="
M496.997498,608.968079 
	C496.997498,599.067993 496.997498,589.661560 496.997498,579.249451 
	C508.868927,586.502136 519.989563,593.296143 531.537048,600.350830 
	C519.711121,607.508545 508.563110,614.255981 496.997498,621.256165 
	C496.997498,616.764038 496.997498,613.112854 496.997498,608.968079 
z"/>
<path fill="#000000" opacity="1.000000" stroke="none" 
	d="
M545.998352,624.008911 
	C545.998352,618.870361 545.998352,614.229797 545.998352,609.071533 
	C557.514160,616.046997 568.720276,622.834839 580.589172,630.024170 
	C568.967102,637.064453 557.637085,643.927795 545.998352,650.978149 
	C545.998352,641.782410 545.998352,633.144653 545.998352,624.008911 
z"/>
<path fill="#000000" opacity="1.000000" stroke="none" 
	d="
M545.998352,460.964722 
	C545.998352,450.733124 545.998352,440.996429 545.998352,430.552002 
	C557.930786,437.781647 569.250366,444.640015 580.553284,451.488281 
	C569.402161,458.287323 558.160828,465.141388 546.471130,472.268799 
	C545.516418,468.520874 546.235718,464.950287 545.998352,460.964722 
z"/>
<path fill="#000000" opacity="1.000000" stroke="none" 
	d="
M496.997498,660.999512 
	C496.997498,653.524353 496.997498,646.548950 496.997498,638.882935 
	C508.524811,645.837769 519.702759,652.581848 531.608154,659.764832 
	C519.903625,666.875732 508.724518,673.667358 496.997498,680.791931 
	C496.997498,674.194580 496.997498,667.846924 496.997498,660.999512 
z"/>
<path fill="#000000" opacity="1.000000" stroke="none" 
	d="
M567.338745,697.212646 
	C560.298889,701.669434 553.574707,705.917603 546.313416,710.505188 
	C546.313416,696.308472 546.313416,682.810791 546.313416,668.757324 
	C557.866211,675.749939 569.197449,682.608521 580.718933,689.582153 
	C576.368530,692.053589 572.011414,694.528870 567.338745,697.212646 
z"/>
<path fill="#000000" opacity="1.000000" stroke="none" 
	d="
M498.391388,461.161530 
	C509.560120,467.889587 520.330322,474.505127 531.474609,481.350525 
	C519.782471,488.434052 508.732910,495.128296 497.056366,502.202393 
	C497.056366,488.316437 497.050018,475.141632 497.095490,461.967041 
	C497.096527,461.660034 497.680695,461.355011 498.391388,461.161530 
z"/>
<path fill="#000000" opacity="1.000000" stroke="none" 
	d="
M659.248047,463.249603 
	C654.216370,466.353943 649.453247,469.193481 644.268677,472.284271 
	C644.268677,458.276947 644.268677,444.782318 644.268677,430.713745 
	C655.913086,437.769135 667.246094,444.635803 678.589844,451.509003 
	C672.282593,455.303864 665.899536,459.144348 659.248047,463.249603 
z"/>
<path fill="#000000" opacity="1.000000" stroke="none" 
	d="
M662.020020,520.977783 
	C655.969910,524.590698 650.297241,528.176575 644.233643,532.009705 
	C644.233643,517.854614 644.233643,504.200073 644.233643,490.212219 
	C655.614624,497.125549 666.814331,503.928741 678.518127,511.038147 
	C672.919556,514.480774 667.658569,517.715820 662.020020,520.977783 
z"/>
<path fill="#000000" opacity="1.000000" stroke="none" 
	d="
M677.684448,629.328979 
	C672.413879,634.991638 665.176575,637.749084 658.870422,641.946228 
	C654.228149,645.035889 649.350281,647.771667 644.242493,650.868164 
	C644.242493,636.858582 644.242493,623.204102 644.242493,609.374329 
	C655.364441,615.969849 666.393616,622.510437 677.684448,629.328979 
z"/>
<path fill="#000000" opacity="1.000000" stroke="none" 
	d="
M625.631226,602.744507 
	C615.355347,608.943787 605.385254,614.930969 595.201904,621.046265 
	C595.201904,607.052551 595.201904,593.656006 595.201904,579.468262 
	C602.929749,584.144836 610.159058,588.534668 617.404846,592.897095 
	C620.289001,594.633545 623.197449,596.330688 626.117126,598.006775 
	C628.990051,599.656067 629.628540,601.167847 625.631226,602.744507 
z"/>
<path fill="#000000" opacity="1.000000" stroke="none" 
	d="
M664.764771,562.274780 
	C669.328369,565.041504 673.630920,567.536072 678.587463,570.409912 
	C666.953369,577.526672 655.881409,584.299561 644.321899,591.370728 
	C644.321899,577.316162 644.321899,563.819397 644.321899,549.816406 
	C651.167053,553.949646 657.835388,557.976135 664.764771,562.274780 
z"/>
<path fill="#000000" opacity="1.000000" stroke="none" 
	d="
M599.329834,641.741638 
	C609.312927,647.702881 618.982422,653.442322 629.246216,659.534485 
	C618.324890,667.575256 606.316833,673.155212 595.212036,680.892456 
	C595.212036,666.935608 595.212036,653.384949 595.212036,639.646667 
	C596.750244,639.495178 597.950806,640.348389 599.329834,641.741638 
z"/>
<path fill="#000000" opacity="1.000000" stroke="none" 
	d="
M553.328857,408.218292 
	C550.882080,409.816925 548.748413,411.202148 546.288574,412.799072 
	C546.288574,398.880554 546.288574,385.226532 546.288574,371.245819 
	C557.580933,378.066650 568.806091,384.846893 580.654968,392.003845 
	C571.364441,397.507050 562.503174,402.755951 553.328857,408.218292 
z"/>
<path fill="#000000" opacity="1.000000" stroke="none" 
	d="
M507.330811,555.217407 
	C503.940765,557.364075 500.864655,559.298096 497.257324,561.566101 
	C497.257324,547.392090 497.257324,534.011658 497.257324,520.044434 
	C508.540497,526.849854 519.715027,533.589722 531.345398,540.604553 
	C523.340515,545.803162 515.746704,550.809814 507.330811,555.217407 
z"/>
<path fill="#000000" opacity="1.000000" stroke="none" 
	d="
M594.998352,482.999146 
	C594.998352,475.417145 594.998352,468.334869 594.998352,460.308228 
	C606.853638,467.530487 617.981445,474.309631 629.522583,481.340546 
	C617.690125,488.489624 606.538269,495.227539 594.998352,502.199890 
	C594.998352,495.449829 594.998352,489.474365 594.998352,482.999146 
z"/>
<path fill="#000000" opacity="1.000000" stroke="none" 
	d="
M615.698364,413.269775 
	C620.239441,416.105377 624.480286,418.712402 629.403137,421.738647 
	C617.990906,428.712646 606.917297,435.479767 595.277100,442.593079 
	C595.277100,428.411163 595.277100,415.036560 595.277100,401.165710 
	C602.013550,405.141571 608.705872,409.091370 615.698364,413.269775 
z"/>
<path fill="#000000" opacity="1.000000" stroke="none" 
	d="
M609.339600,528.762207 
	C615.298584,532.347168 620.869873,535.855469 626.623657,539.033386 
	C629.491150,540.617249 628.383301,541.660156 626.559753,542.777710 
	C618.792114,547.538147 611.092285,552.426392 603.136902,556.853210 
	C600.686340,558.216797 598.620117,560.477173 595.301880,560.904968 
	C595.301880,547.439941 595.301880,534.075378 595.301880,520.061218 
	C599.937744,522.928101 604.482483,525.738586 609.339600,528.762207 
z"/>
<path fill="#000000" opacity="1.000000" stroke="none" 
	d="
M621.976807,583.977905 
	C614.477539,579.614136 607.354126,575.276611 599.972778,570.782043 
	C611.342529,563.860596 622.416687,557.119141 633.778442,550.202637 
	C633.778442,563.916199 633.778442,577.289612 633.778442,591.108521 
	C629.655334,588.953003 625.778381,586.864868 621.976807,583.977905 
z"/>
<path fill="#000000" opacity="1.000000" stroke="none" 
	d="
M625.034729,496.016602 
	C627.957886,494.335571 630.502319,492.678680 633.519409,490.714020 
	C633.519409,504.488007 633.519409,517.927063 633.519409,531.629883 
	C622.561401,524.985840 611.500916,518.279602 600.003418,511.308411 
	C608.271606,506.187805 616.463806,501.114288 625.034729,496.016602 
z"/>
<path fill="#000000" opacity="1.000000" stroke="none" 
	d="
M614.695435,639.300781 
	C609.762024,636.219604 605.125854,633.370972 599.996216,630.219116 
	C611.111450,623.482727 622.175354,616.777405 633.628418,609.836243 
	C633.628418,623.490906 633.628418,636.840027 633.628418,650.561401 
	C627.457275,646.909485 621.224976,643.221375 614.695435,639.300781 
z"/>
<path fill="#000000" opacity="1.000000" stroke="none" 
	d="
M665.237427,531.281738 
	C671.052551,527.594849 676.615845,524.191101 682.710266,520.462341 
	C682.710266,534.383057 682.710266,547.548035 682.710266,561.339905 
	C677.964233,558.626465 673.502014,556.194092 669.160034,553.563354 
	C663.536926,550.156372 658.086060,546.459534 652.402771,543.160156 
	C650.181580,541.870605 648.880676,540.809692 651.629944,539.118774 
	C655.983643,536.441162 660.524109,534.067261 665.237427,531.281738 
z"/>
<path fill="#000000" opacity="1.000000" stroke="none" 
	d="
M512.345215,683.250366 
	C520.319702,678.498291 527.975647,673.951599 535.805481,669.301636 
	C535.805481,682.956177 535.805481,696.331055 535.805481,710.244202 
	C524.296326,703.283508 513.142883,696.537903 502.020996,689.811401 
	C505.558319,687.564514 508.792450,685.510193 512.345215,683.250366 
z"/>
<path fill="#000000" opacity="1.000000" stroke="none" 
	d="
M556.673462,418.779785 
	C566.049805,412.935577 575.111572,407.307587 584.735474,401.330444 
	C584.735474,415.421875 584.735474,428.584412 584.735474,442.425995 
	C577.161865,437.898651 570.040039,433.664246 562.944275,429.386719 
	C560.605164,427.976624 558.340027,426.444336 556.028137,424.988464 
	C554.588867,424.082062 552.041687,423.997375 552.209595,421.825470 
	C552.365845,419.804138 554.812683,419.751801 556.673462,418.779785 
z"/>
<path fill="#000000" opacity="1.000000" stroke="none" 
	d="
M633.964783,447.005402 
	C633.964783,455.595337 633.964783,463.686676 633.964783,472.379517 
	C622.291016,465.276672 611.237183,458.550995 600.000244,451.713959 
	C611.293213,444.851105 622.313477,438.153992 633.964783,431.073364 
	C633.964783,436.455963 633.964783,441.481354 633.964783,447.005402 
z"/>
<path fill="#000000" opacity="1.000000" stroke="none" 
	d="
M657.999573,595.017944 
	C666.381836,590.043640 674.388611,585.093079 682.812134,579.884827 
	C682.812134,593.756531 682.812134,606.968201 682.812134,620.944214 
	C671.462280,614.120361 660.347717,607.437927 649.119263,600.687012 
	C652.101440,598.707520 654.862732,596.874573 657.999573,595.017944 
z"/>
<path fill="#000000" opacity="1.000000" stroke="none" 
	d="
M563.689331,608.297974 
	C559.427368,605.629639 555.464783,603.191895 551.062134,600.483337 
	C562.385620,593.603210 573.458618,586.875305 584.883850,579.933350 
	C584.883850,593.863342 584.883850,607.130981 584.883850,620.931213 
	C577.726868,616.683044 570.857788,612.605835 563.689331,608.297974 
z"/>
<path fill="#000000" opacity="1.000000" stroke="none" 
	d="
M681.126282,462.007935 
	C684.390320,460.884979 682.907227,463.370697 682.911926,463.967102 
	C683.010498,476.426208 682.986328,488.886292 682.986328,502.077972 
	C671.472961,495.136627 660.320618,488.412933 649.010742,481.594299 
	C659.768066,474.961639 670.250061,468.498718 681.126282,462.007935 
z"/>
<path fill="#000000" opacity="1.000000" stroke="none" 
	d="
M519.260681,521.710510 
	C513.491150,518.161926 507.986725,514.880310 501.928558,511.268463 
	C513.113831,504.486206 524.166016,497.784637 535.610107,490.845398 
	C535.610107,504.559204 535.610107,517.987183 535.610107,531.629822 
	C530.193848,528.379456 524.859863,525.178406 519.260681,521.710510 
z"/>
<path fill="#000000" opacity="1.000000" stroke="none" 
	d="
M584.964783,487.985840 
	C584.964783,492.787048 584.964783,497.091675 584.964783,502.103973 
	C573.501038,495.150635 562.440796,488.442017 551.005554,481.505920 
	C562.368591,474.606140 573.462646,467.869720 584.964783,460.885498 
	C584.964783,470.229462 584.964783,478.859375 584.964783,487.985840 
z"/>
<path fill="#000000" opacity="1.000000" stroke="none" 
	d="
M535.964600,433.717041 
	C535.964783,446.689728 535.964783,459.235046 535.964783,472.384186 
	C524.317627,465.296021 513.298523,458.590088 502.007111,451.718445 
	C512.989380,445.078583 523.728516,438.668427 534.363586,432.090118 
	C536.647522,430.677399 535.812988,432.397919 535.964600,433.717041 
z"/>
<path fill="#000000" opacity="1.000000" stroke="none" 
	d="
M531.722717,552.757568 
	C533.277771,551.916504 534.563843,551.372314 535.810669,549.535217 
	C535.810669,563.950134 535.810669,577.325500 535.810669,591.272583 
	C524.302979,584.279053 513.161133,577.507812 501.968201,570.705566 
	C511.974365,564.687378 521.697449,558.839478 531.722717,552.757568 
z"/>
<path fill="#000000" opacity="1.000000" stroke="none" 
	d="
M558.348267,664.734131 
	C551.333374,659.703247 551.270569,659.599854 558.170349,655.408875 
	C566.760620,650.190857 575.467712,645.165161 584.566406,639.795532 
	C584.566406,653.270508 584.566406,666.421936 584.566406,680.295410 
	C575.839355,675.132324 567.243774,670.046936 558.348267,664.734131 
z"/>
<path fill="#000000" opacity="1.000000" stroke="none" 
	d="
M575.259644,555.709412 
	C567.952759,551.292664 560.915222,547.137573 553.867554,542.999695 
	C552.161499,541.998047 551.033081,540.708557 553.274231,539.354431 
	C563.518860,533.164368 573.844360,527.108215 584.597290,520.733276 
	C584.597290,534.314636 584.597290,547.482605 584.597290,560.912231 
	C581.188354,560.079529 578.578064,557.591248 575.259644,555.709412 
z"/>
<path fill="#000000" opacity="1.000000" stroke="none" 
	d="
M508.318573,388.246704 
	C517.503479,382.717224 526.373718,377.394012 535.628784,371.839874 
	C535.628784,385.491821 535.628784,398.840820 535.628784,412.561157 
	C524.550781,405.873627 513.415405,399.151428 502.039032,392.283752 
	C504.007629,391.019501 506.005768,389.736267 508.318573,388.246704 
z"/>
<path fill="#000000" opacity="1.000000" stroke="none" 
	d="
M463.968384,475.021729 
	C471.348083,469.661133 479.272858,465.880035 486.905029,460.876770 
	C486.905029,474.873444 486.905029,488.132812 486.905029,502.074310 
	C475.521240,495.163361 464.479919,488.460327 453.147186,481.580414 
	C456.762634,479.319214 460.177399,477.183533 463.968384,475.021729 
z"/>
<path fill="#000000" opacity="1.000000" stroke="none" 
	d="
M454.800842,601.281067 
	C454.227936,600.766663 452.795105,600.808777 453.760223,600.206604 
	C464.567657,593.463257 475.471130,586.873840 486.749573,579.998718 
	C486.749573,593.721802 486.749573,606.895508 486.749573,621.049255 
	C475.991669,614.424438 465.525452,607.979248 454.800842,601.281067 
z"/>
<path fill="#000000" opacity="1.000000" stroke="none" 
	d="
M509.004303,626.017456 
	C518.078369,620.649353 526.777527,615.304810 535.883667,609.710144 
	C535.883667,623.844788 535.883667,637.108459 535.883667,650.838379 
	C524.562744,643.955994 513.505615,637.234009 502.210968,630.367615 
	C504.304504,628.956360 506.466919,627.498718 509.004303,626.017456 
z"/>
<path fill="#000000" opacity="1.000000" stroke="none" 
	d="
M476.691437,436.297119 
	C469.573059,431.831940 462.467926,428.077972 455.858002,423.476044 
	C453.895966,422.110077 453.430908,421.426392 455.488861,420.182068 
	C465.339508,414.226013 475.225098,408.327698 485.111664,402.431335 
	C485.487244,402.207367 486.001251,402.215637 486.725830,402.054565 
	C486.725830,415.406952 486.725830,428.567719 486.725830,442.223053 
	C483.247559,440.188171 480.119202,438.358002 476.691437,436.297119 
z"/>
<path fill="#000000" opacity="1.000000" stroke="none" 
	d="
M456.224915,658.281128 
	C466.312592,652.007690 476.154205,646.023376 486.491272,639.737854 
	C486.491272,653.284912 486.491272,666.506775 486.491272,680.214111 
	C481.916412,677.596008 477.455078,675.156555 473.108612,672.527161 
	C467.474701,669.119019 461.963562,665.508057 456.332916,662.094360 
	C454.440033,660.946716 452.390930,660.130066 456.224915,658.281128 
z"/>
<path fill="#000000" opacity="1.000000" stroke="none" 
	d="
M486.964722,557.572754 
	C486.934570,559.850586 487.434601,562.063354 484.246643,560.112122 
	C474.678680,554.255737 464.996765,548.585693 455.417877,542.746826 
	C453.379700,541.504517 453.959778,540.781921 455.925629,539.455383 
	C464.289276,533.811584 473.140900,528.998779 481.732727,523.749512 
	C483.209808,522.847107 484.656891,521.895569 486.964752,520.428284 
	C486.964752,533.132629 486.964752,545.126953 486.964722,557.572754 
z"/>
</svg>