<svg version="1.1" id="Layer_1" xmlns="http://www.w3.org/2000/svg" xmlns:xlink="http://www.w3.org/1999/xlink" x="0px" y="0px"
	 width="100%" viewBox="0 0 1599 1089" enable-background="new 0 0 1599 1089" xml:space="preserve">
<path fill="#232323" opacity="1.000000" stroke="none" 
	d="
M1142.000000,1090.000000 
	C966.977356,1090.000000 791.954773,1090.000000 616.457947,1089.633789 
	C615.176758,1087.879395 614.638550,1086.207642 613.520508,1085.147705 
	C603.871521,1076.000977 593.815125,1067.264526 584.465637,1057.825928 
	C569.835266,1043.056274 555.375793,1028.095093 541.365845,1012.738892 
	C522.795288,992.383911 504.357941,971.883301 486.554504,950.860046 
	C470.906494,932.382019 455.527039,913.596985 441.255524,894.051819 
	C420.489532,865.612549 399.989655,836.907349 380.918976,807.321228 
	C360.847046,776.181824 341.941223,744.238037 323.752991,711.954346 
	C310.039398,687.613037 297.786041,662.407959 285.757233,637.170532 
	C274.384308,613.309082 263.593170,589.133850 253.538345,564.688538 
	C234.866470,519.293457 218.306702,473.126251 204.415176,426.001587 
	C189.656647,375.935760 176.725372,325.439667 167.900116,273.984436 
	C162.133163,240.360611 156.856827,206.637497 152.212891,172.841751 
	C149.329269,151.856369 147.781281,130.672379 146.112701,109.539742 
	C144.715973,91.850159 143.734909,74.116013 143.081314,56.382751 
	C142.401321,37.933613 142.334778,19.461863 142.000000,1.000000 
	C225.689316,1.000000 309.378632,1.000000 393.533997,1.468656 
	C394.663300,21.684122 395.143829,41.439316 396.049255,61.175018 
	C396.740112,76.234154 397.626984,91.300873 399.041412,106.306274 
	C401.044647,127.558212 403.103607,148.828568 406.076721,169.959106 
	C409.397919,193.563522 413.146057,217.145569 417.849609,240.507584 
	C422.956238,265.871948 428.687683,291.157257 435.409271,316.137268 
	C442.789062,343.563324 451.564667,370.615448 459.909729,397.775940 
	C460.418427,399.431519 462.488495,400.607391 463.903320,402.469910 
	C463.982941,503.050018 464.122314,603.166992 463.893677,703.283081 
	C463.845520,724.366943 472.591217,739.373840 490.740417,749.824707 
	C585.665222,804.485474 680.480347,859.336792 775.334473,914.120361 
	C791.894897,923.684937 808.466003,923.625549 825.058777,914.184937 
	C832.997314,909.668152 840.958557,905.191345 849.049194,901.020142 
	C850.897339,903.156677 852.427856,905.187927 854.342285,906.748047 
	C870.269714,919.728333 885.780090,933.290039 902.355652,945.389404 
	C929.287781,965.048584 956.639343,984.169495 984.350159,1002.716187 
	C1017.239380,1024.728882 1051.884155,1043.826904 1087.249634,1061.566284 
	C1103.893066,1069.914673 1120.823486,1077.690186 1137.550293,1085.875366 
	C1139.289917,1086.726440 1140.528809,1088.600464 1142.000000,1090.000000 
z"/>
<path fill="#393939" opacity="1.000000" stroke="none" 
	d="
M1600.000000,511.000000 
	C1600.000000,618.354248 1600.000000,725.708435 1599.531494,833.531372 
	C1586.471191,833.339172 1573.829468,833.174927 1561.298950,831.908813 
	C1538.899292,829.645630 1516.500610,827.177185 1494.220581,823.968506 
	C1453.538696,818.109741 1413.741211,808.173218 1374.540894,795.951477 
	C1323.704590,780.101990 1274.715820,759.662354 1228.356812,733.459717 
	C1201.458130,718.256348 1175.555298,701.290833 1149.209351,685.110046 
	C1144.848755,682.431885 1140.514282,679.711182 1136.088135,676.546814 
	C1136.006958,575.766968 1135.875488,475.450165 1136.113770,375.134277 
	C1136.161499,355.075592 1127.624634,340.880035 1110.557129,331.053375 
	C1051.027100,296.778687 991.540283,262.429199 932.062988,228.063126 
	C913.217407,217.174103 894.453308,206.144058 875.961670,194.913361 
	C876.386658,192.885880 876.950623,191.014038 876.551147,189.377380 
	C867.906860,153.963821 861.080444,118.225319 858.005676,81.872643 
	C856.290955,61.599808 855.207764,41.270653 854.058899,20.954502 
	C853.683899,14.323099 854.000000,7.652611 854.000000,1.000000 
	C940.354248,1.000000 1026.708496,1.000000 1113.531372,1.468384 
	C1114.332886,9.398053 1114.423706,16.879602 1115.046265,24.316647 
	C1116.621338,43.131897 1117.601318,62.049656 1120.341431,80.702774 
	C1124.861694,111.472519 1132.719116,141.493958 1143.035522,170.897049 
	C1157.104126,210.994629 1176.045654,248.610779 1199.439209,284.006805 
	C1213.649536,305.507812 1229.525513,325.689270 1246.995361,344.713196 
	C1264.017456,363.249695 1281.698364,381.133972 1301.475464,396.563293 
	C1320.819702,411.654907 1341.079834,425.698578 1361.749146,438.935333 
	C1390.137817,457.115570 1420.806763,470.932983 1452.537964,482.294037 
	C1478.394653,491.551788 1504.787598,498.935760 1531.846558,503.736938 
	C1554.385620,507.736115 1577.004883,511.186615 1600.000000,511.000000 
z"/>
<path fill="#1C1C1C" opacity="1.000000" stroke="none" 
	d="
M141.531342,1.000000 
	C142.334778,19.461863 142.401321,37.933613 143.081314,56.382751 
	C143.734909,74.116013 144.715973,91.850159 146.112701,109.539742 
	C147.781281,130.672379 149.329269,151.856369 152.212891,172.841751 
	C156.856827,206.637497 162.133163,240.360611 167.900116,273.984436 
	C176.725372,325.439667 189.656647,375.935760 204.415176,426.001587 
	C218.306702,473.126251 234.866470,519.293457 253.538345,564.688538 
	C263.593170,589.133850 274.384308,613.309082 285.757233,637.170532 
	C297.786041,662.407959 310.039398,687.613037 323.752991,711.954346 
	C341.941223,744.238037 360.847046,776.181824 380.918976,807.321228 
	C399.989655,836.907349 420.489532,865.612549 441.255524,894.051819 
	C455.527039,913.596985 470.906494,932.382019 486.554504,950.860046 
	C504.357941,971.883301 522.795288,992.383911 541.365845,1012.738892 
	C555.375793,1028.095093 569.835266,1043.056274 584.465637,1057.825928 
	C593.815125,1067.264526 603.871521,1076.000977 613.520508,1085.147705 
	C614.638550,1086.207642 615.176758,1087.879395 615.991882,1089.633789 
	C522.312439,1090.000000 428.624878,1090.000000 334.460663,1089.635010 
	C332.185577,1086.548950 330.580719,1083.673828 328.558167,1081.130981 
	C312.139801,1060.488770 295.176147,1040.262207 279.269409,1019.235168 
	C247.980621,977.874756 218.557312,935.212830 191.305313,891.044739 
	C167.188461,851.957947 144.282394,812.184814 123.763969,771.124146 
	C107.183075,737.943054 91.025101,704.477722 76.487206,670.368103 
	C60.331444,632.462463 45.542519,593.931763 31.453709,555.202026 
	C21.227650,527.090881 13.133530,498.205170 3.989981,469.696533 
	C3.441742,467.987183 2.016923,466.559021 0.999999,465.000000 
	C1.000000,310.445251 1.000000,155.890488 1.000000,1.000000 
	C47.687023,1.000000 94.374855,1.000000 141.531342,1.000000 
z"/>
<path fill="#2E2E2E" opacity="1.000000" stroke="none" 
	d="
M1136.167725,677.010193 
	C1140.514282,679.711182 1144.848755,682.431885 1149.209351,685.110046 
	C1175.555298,701.290833 1201.458130,718.256348 1228.356812,733.459717 
	C1274.715820,759.662354 1323.704590,780.101990 1374.540894,795.951477 
	C1413.741211,808.173218 1453.538696,818.109741 1494.220581,823.968506 
	C1516.500610,827.177185 1538.899292,829.645630 1561.298950,831.908813 
	C1573.829468,833.174927 1586.471191,833.339172 1599.531494,834.000000 
	C1600.000000,919.281067 1600.000000,1004.562073 1600.000000,1090.000000 
	C1447.645752,1090.000000 1295.291504,1090.000000 1142.468628,1090.000000 
	C1140.528809,1088.600464 1139.289917,1086.726440 1137.550293,1085.875366 
	C1120.823486,1077.690186 1103.893066,1069.914673 1087.249634,1061.566284 
	C1051.884155,1043.826904 1017.239380,1024.728882 984.350159,1002.716187 
	C956.639343,984.169495 929.287781,965.048584 902.355652,945.389404 
	C885.780090,933.290039 870.269714,919.728333 854.342285,906.748047 
	C852.427856,905.187927 850.897339,903.156677 849.241577,900.747925 
	C873.603394,886.106262 897.914124,872.063538 922.221130,858.014343 
	C985.079712,821.682800 1047.909058,785.300720 1110.812378,749.046814 
	C1127.709106,739.308533 1136.500366,725.197205 1136.058838,705.466919 
	C1135.846558,695.986938 1136.116333,686.496094 1136.167725,677.010193 
z"/>
<path fill="#414141" opacity="1.000000" stroke="none" 
	d="
M1600.000000,510.531342 
	C1577.004883,511.186615 1554.385620,507.736115 1531.846558,503.736938 
	C1504.787598,498.935760 1478.394653,491.551788 1452.537964,482.294037 
	C1420.806763,470.932983 1390.137817,457.115570 1361.749146,438.935333 
	C1341.079834,425.698578 1320.819702,411.654907 1301.475464,396.563293 
	C1281.698364,381.133972 1264.017456,363.249695 1246.995361,344.713196 
	C1229.525513,325.689270 1213.649536,305.507812 1199.439209,284.006805 
	C1176.045654,248.610779 1157.104126,210.994629 1143.035522,170.897049 
	C1132.719116,141.493958 1124.861694,111.472519 1120.341431,80.702774 
	C1117.601318,62.049656 1116.621338,43.131897 1115.046265,24.316647 
	C1114.423706,16.879602 1114.332886,9.398053 1114.000000,1.468384 
	C1192.354248,1.000000 1270.708496,1.000000 1349.531372,1.468572 
	C1351.313965,17.606997 1351.791748,33.401756 1354.109985,48.921616 
	C1359.509888,85.071922 1372.850342,118.412300 1392.545166,149.138901 
	C1406.872925,171.492111 1424.164185,191.325180 1444.210938,208.825867 
	C1461.200073,223.657242 1479.249023,237.029343 1499.634644,246.559189 
	C1515.991089,254.205383 1532.972168,260.779724 1550.170776,266.283325 
	C1566.241699,271.426056 1582.946289,274.637695 1600.000000,275.000000 
	C1600.000000,353.354218 1600.000000,431.708466 1600.000000,510.531342 
z"/>
<path fill="#161616" opacity="1.000000" stroke="none" 
	d="
M0.999999,465.468658 
	C2.016923,466.559021 3.441742,467.987183 3.989981,469.696533 
	C13.133530,498.205170 21.227650,527.090881 31.453709,555.202026 
	C45.542519,593.931763 60.331444,632.462463 76.487206,670.368103 
	C91.025101,704.477722 107.183075,737.943054 123.763969,771.124146 
	C144.282394,812.184814 167.188461,851.957947 191.305313,891.044739 
	C218.557312,935.212830 247.980621,977.874756 279.269409,1019.235168 
	C295.176147,1040.262207 312.139801,1060.488770 328.558167,1081.130981 
	C330.580719,1083.673828 332.185577,1086.548950 333.992004,1089.635010 
	C223.050690,1090.000000 112.101387,1090.000000 1.000000,1090.000000 
	C1.000000,881.979126 1.000000,673.958252 0.999999,465.468658 
z"/>
<path fill="#2B2B2B" opacity="1.000000" stroke="none" 
	d="
M463.832092,402.006470 
	C462.488495,400.607391 460.418427,399.431519 459.909729,397.775940 
	C451.564667,370.615448 442.789062,343.563324 435.409271,316.137268 
	C428.687683,291.157257 422.956238,265.871948 417.849609,240.507584 
	C413.146057,217.145569 409.397919,193.563522 406.076721,169.959106 
	C403.103607,148.828568 401.044647,127.558212 399.041412,106.306274 
	C397.626984,91.300873 396.740112,76.234154 396.049255,61.175018 
	C395.143829,41.439316 394.663300,21.684122 394.000000,1.468656 
	C471.687561,1.000000 549.375122,1.000000 627.531372,1.468658 
	C628.334229,19.706091 628.603699,37.476456 629.039917,55.242733 
	C629.182129,61.033127 629.622314,66.825798 630.166443,72.594772 
	C631.361938,85.268814 632.593445,97.941727 634.030823,110.590042 
	C635.374817,122.417114 636.773560,134.246841 638.564697,146.011978 
	C640.830444,160.895416 643.181519,175.781586 646.118286,190.542740 
	C649.024658,205.150681 652.705383,219.604523 655.900269,234.448700 
	C636.277832,246.197678 616.853027,257.712891 597.314087,269.030853 
	C561.507141,289.772003 525.684814,310.487640 489.764069,331.030731 
	C472.433838,340.941895 463.669800,355.499420 463.972839,375.541687 
	C464.106171,384.360535 463.889740,393.184723 463.832092,402.006470 
z"/>
<path fill="#484848" opacity="1.000000" stroke="none" 
	d="
M1600.000000,274.531342 
	C1582.946289,274.637695 1566.241699,271.426056 1550.170776,266.283325 
	C1532.972168,260.779724 1515.991089,254.205383 1499.634644,246.559189 
	C1479.249023,237.029343 1461.200073,223.657242 1444.210938,208.825867 
	C1424.164185,191.325180 1406.872925,171.492111 1392.545166,149.138901 
	C1372.850342,118.412300 1359.509888,85.071922 1354.109985,48.921616 
	C1351.791748,33.401756 1351.313965,17.606997 1350.000000,1.468572 
	C1433.263672,1.000000 1516.527466,1.000000 1600.000000,1.000000 
	C1600.000000,92.020790 1600.000000,183.041733 1600.000000,274.531342 
z"/>
<path fill="#323232" opacity="1.000000" stroke="none" 
	d="
M656.046509,234.125961 
	C652.705383,219.604523 649.024658,205.150681 646.118286,190.542740 
	C643.181519,175.781586 640.830444,160.895416 638.564697,146.011978 
	C636.773560,134.246841 635.374817,122.417114 634.030823,110.590042 
	C632.593445,97.941727 631.361938,85.268814 630.166443,72.594772 
	C629.622314,66.825798 629.182129,61.033127 629.039917,55.242733 
	C628.603699,37.476456 628.334229,19.706091 628.000000,1.468658 
	C703.020874,1.000000 778.041809,1.000000 853.531372,1.000000 
	C854.000000,7.652611 853.683899,14.323099 854.058899,20.954502 
	C855.207764,41.270653 856.290955,61.599808 858.005676,81.872643 
	C861.080444,118.225319 867.906860,153.963821 876.551147,189.377380 
	C876.950623,191.014038 876.386658,192.885880 875.616455,194.868820 
	C860.436401,186.729996 845.537292,178.950058 831.474915,169.873749 
	C810.926758,156.611328 791.407471,156.106445 770.144165,169.043076 
	C735.210022,190.297058 699.441406,210.180283 663.989441,230.580399 
	C661.489502,232.018921 658.700867,232.955811 656.046509,234.125961 
z"/>
<path fill="#F6FAFB" opacity="1.000000" stroke="none" 
	d="
M655.900269,234.448700 
	C658.700867,232.955811 661.489502,232.018921 663.989441,230.580399 
	C699.441406,210.180283 735.210022,190.297058 770.144165,169.043076 
	C791.407471,156.106445 810.926758,156.611328 831.474915,169.873749 
	C845.537292,178.950058 860.436401,186.729996 875.306702,195.133987 
	C894.453308,206.144058 913.217407,217.174103 932.062988,228.063126 
	C991.540283,262.429199 1051.027100,296.778687 1110.557129,331.053375 
	C1127.624634,340.880035 1136.161499,355.075592 1136.113770,375.134277 
	C1135.875488,475.450165 1136.006958,575.766968 1136.088135,676.546814 
	C1136.116333,686.496094 1135.846558,695.986938 1136.058838,705.466919 
	C1136.500366,725.197205 1127.709106,739.308533 1110.812378,749.046814 
	C1047.909058,785.300720 985.079712,821.682800 922.221130,858.014343 
	C897.914124,872.063538 873.603394,886.106262 849.101929,900.424194 
	C840.958557,905.191345 832.997314,909.668152 825.058777,914.184937 
	C808.466003,923.625549 791.894897,923.684937 775.334473,914.120361 
	C680.480347,859.336792 585.665222,804.485474 490.740417,749.824707 
	C472.591217,739.373840 463.845520,724.366943 463.893677,703.283081 
	C464.122314,603.166992 463.982941,503.050018 463.903351,402.469910 
	C463.889740,393.184723 464.106171,384.360535 463.972839,375.541687 
	C463.669800,355.499420 472.433838,340.941895 489.764069,331.030731 
	C525.684814,310.487640 561.507141,289.772003 597.314087,269.030853 
	C616.853027,257.712891 636.277832,246.197678 655.900269,234.448700 
M916.703735,619.664246 
	C916.703735,619.664246 916.740540,619.680542 917.236755,619.261353 
	C918.723938,617.487061 920.211182,615.712769 922.106873,613.545898 
	C922.097534,613.357239 922.088135,613.168640 922.333130,612.752441 
	C922.333130,612.752441 922.193176,612.441223 922.877625,612.061462 
	C925.294495,609.847473 925.035950,611.769897 924.955505,613.407227 
	C924.414307,624.427734 924.229370,635.480469 923.237793,646.460449 
	C922.024658,659.894592 932.623718,675.949219 945.639465,679.309875 
	C949.893494,680.408325 953.679443,679.206543 956.272766,675.763550 
	C958.859863,672.328735 960.904602,668.485291 963.185242,664.819824 
	C964.796326,662.230530 966.523560,659.704163 967.977966,657.029541 
	C969.292480,654.612122 970.418457,652.075256 971.422241,649.510681 
	C972.384460,647.052490 973.082764,644.491028 974.574463,641.838074 
	C975.878174,640.015991 977.181946,638.193909 978.987427,635.846924 
	C978.965576,635.239380 978.943665,634.631775 978.944580,633.377014 
	C978.992065,631.589783 979.039612,629.802612 979.258789,627.521545 
	C979.204895,627.355774 979.150940,627.190063 979.671509,627.043518 
	C979.795471,626.746033 979.919434,626.448608 980.768250,626.089111 
	C983.013306,622.469788 985.258301,618.850403 987.541260,615.169861 
	C987.541260,611.852173 986.742981,607.923218 987.720093,604.501282 
	C989.367004,598.733521 988.130798,593.095093 985.982422,588.478271 
	C983.494690,583.132141 978.879456,578.527100 974.447937,574.393494 
	C968.081299,568.454895 960.051086,567.030884 951.379395,566.838440 
	C943.106079,566.654846 940.919128,566.826721 937.074463,574.054382 
	C934.302673,579.265137 932.137817,584.798645 929.696411,590.201172 
	C929.449097,590.043091 929.255676,589.986023 929.176941,589.858276 
	C928.656067,589.013306 928.182373,588.138916 927.652405,587.300049 
	C919.230225,573.968933 907.567139,566.659729 891.361206,567.090332 
	C879.963379,567.393311 869.023926,569.472778 858.525940,573.863281 
	C848.246704,578.162231 838.051453,582.656799 830.229736,590.976501 
	C829.150574,592.124390 827.811096,594.496643 828.290710,595.383240 
	C830.230591,598.969727 832.834900,602.196655 834.751221,604.925659 
	C838.712646,600.841370 841.586914,597.180908 845.147705,594.399414 
	C848.836731,591.517700 853.191467,589.488281 858.326050,586.452942 
	C857.315430,593.842468 856.841003,599.632263 855.690308,605.284302 
	C852.431885,621.289490 848.719604,637.203674 845.591492,653.232910 
	C844.784546,657.367737 845.470154,661.793823 845.470154,666.086060 
	C845.870422,666.108032 846.270630,666.130005 846.670898,666.151978 
	C845.385254,667.145691 844.099670,668.139343 842.232056,669.582886 
	C844.440430,672.482727 846.248169,675.457153 848.684387,677.769470 
	C849.706116,678.739075 852.672241,679.134338 853.704163,678.370972 
	C858.976929,674.471130 863.906799,670.107727 869.618774,665.761230 
	C872.441284,662.856689 875.263855,659.952209 878.785034,656.932678 
	C881.346680,654.824890 883.908264,652.717102 887.036926,650.033325 
	C887.231812,649.847168 887.426636,649.661072 887.704529,648.921509 
	C888.522217,647.998718 889.239746,646.955322 890.177246,646.176758 
	C892.545837,644.209473 895.013428,642.361389 897.405640,640.378357 
	C897.405640,640.378357 897.322693,640.333618 897.845764,640.141602 
	C897.841003,639.780457 897.836304,639.419373 898.131653,638.417114 
	C902.601746,634.310059 907.071838,630.202942 912.253967,625.321167 
	C912.434448,625.020447 912.614990,624.719727 913.098267,624.100403 
	C913.756958,623.262939 914.415588,622.425537 915.594971,621.209229 
	C915.959167,620.682251 916.323364,620.155212 916.703735,619.664246 
M690.093506,484.566071 
	C687.071777,485.392090 682.962769,485.062134 683.103210,489.757294 
	C683.200317,493.006439 687.287048,495.139160 691.912659,494.298706 
	C692.930298,493.512512 694.329834,492.930664 694.883240,491.896118 
	C695.925171,489.948395 696.479065,487.739624 697.235840,485.639374 
	C695.121643,485.256989 693.007507,484.874573 690.093506,484.566071 
M688.314453,414.883850 
	C686.162048,415.025574 684.009583,415.167328 681.857178,415.309052 
	C682.358398,418.030151 682.364502,421.008392 683.584106,423.356384 
	C684.136902,424.420868 687.097290,424.234894 689.702454,424.658813 
	C691.641479,423.323700 693.580505,421.988586 695.519531,420.653503 
	C694.069763,419.122650 692.676025,417.531982 691.140320,416.092804 
	C690.588440,415.575623 689.694519,415.423279 688.314453,414.883850 
M912.154114,415.813171 
	C910.710449,416.603058 909.099426,417.196381 907.872803,418.241150 
	C906.770569,419.179932 905.136475,420.983948 905.432922,421.749603 
	C905.965942,423.126038 907.642090,424.245239 909.082764,425.024231 
	C910.174438,425.614563 911.642334,425.509094 913.669434,425.847015 
	C918.591187,424.262787 920.545532,421.221161 919.198120,417.188263 
	C917.913818,413.344666 915.358093,414.562561 912.154114,415.813171 
M911.259399,484.743469 
	C908.752014,484.696869 905.097839,483.588135 903.963257,484.813080 
	C901.135681,487.866058 904.709778,490.182953 906.687561,492.070953 
	C907.954102,493.280029 910.168640,493.495941 912.700012,494.162445 
	C914.394592,492.061096 916.089172,489.959747 917.783813,487.858429 
	C915.829590,486.911926 913.875366,485.965393 911.259399,484.743469 
M753.172363,296.799744 
	C745.949890,300.619690 745.022644,305.150757 750.305115,311.176178 
	C751.375000,312.396484 752.687195,313.404388 754.495117,315.013672 
	C756.023926,315.039337 757.552673,315.065002 758.797729,315.732758 
	C751.411804,318.041992 748.474854,323.809723 747.896912,330.810211 
	C746.945129,342.337952 746.479675,353.905853 745.799927,365.616547 
	C754.464355,365.616547 763.721863,365.616547 773.900818,365.812805 
	C780.597168,365.747467 787.293518,365.682129 794.910278,365.804840 
	C800.604736,365.741608 806.299194,365.678375 812.909668,365.808929 
	C817.940857,365.746155 822.972046,365.683380 828.918213,365.805664 
	C833.609131,365.742188 838.300049,365.678680 843.902039,365.801300 
	C847.839172,365.801300 851.776245,365.801300 855.841492,365.801300 
	C855.422302,363.156403 854.869263,361.050140 854.790222,358.926208 
	C854.468445,350.279846 854.292480,341.628021 854.061401,332.978271 
	C853.821228,323.989746 849.965454,318.109558 842.590515,315.497070 
	C842.767090,315.348938 842.943726,315.200806 843.673767,314.472290 
	C845.514343,314.127625 847.354919,313.782959 849.820374,313.118530 
	C857.023560,305.633484 856.783325,300.929718 848.401550,296.625610 
	C844.939758,295.298492 843.020325,297.398254 842.842285,300.182037 
	C842.525574,305.135529 843.038025,310.142090 842.414673,315.558258 
	C836.410278,314.672974 831.108765,316.629761 825.499817,319.902283 
	C820.672424,322.955200 815.845032,326.008118 810.234253,329.107086 
	C804.876282,329.571106 799.518372,330.035126 793.679504,330.036865 
	C790.255981,328.109100 786.857361,326.135162 783.401794,324.266571 
	C779.979797,322.416168 776.500366,320.671997 772.757874,318.218933 
	C768.180481,317.188080 763.603149,316.157227 758.820129,314.286133 
	C758.939087,309.473358 759.390015,304.636169 759.039001,299.857910 
	C758.859680,297.417969 757.153687,295.231842 753.172363,296.799744 
M734.829346,404.905273 
	C736.391541,403.664246 738.174805,402.618958 739.477539,401.148163 
	C744.972046,394.945129 751.566895,391.708527 760.915710,393.142548 
	C770.276001,393.077637 779.636230,393.012726 789.918030,393.135254 
	C801.277466,393.071442 812.636963,393.007629 824.917358,393.134430 
	C830.544983,393.144531 836.195129,393.475006 841.794434,393.081757 
	C848.452759,392.614105 854.261536,392.965027 856.023987,401.011871 
	C856.114990,401.427399 856.632202,401.749542 857.054749,402.793335 
	C868.213257,420.090179 884.111023,424.888672 899.821655,415.701904 
	C896.705750,404.924713 895.489929,403.561371 886.506653,403.940002 
	C881.040955,404.170380 876.282837,402.600342 873.178589,398.622803 
	C868.350464,392.436584 864.432617,385.539886 860.082153,378.166016 
	C859.272095,375.725708 858.462036,373.285431 857.722046,371.056183 
	C846.121094,371.056183 835.058777,371.056183 823.074890,370.875427 
	C811.715454,370.934357 800.355957,370.993286 788.075439,370.868561 
	C778.715393,370.929718 769.355347,370.990845 759.075073,370.871643 
	C754.767517,370.859497 750.456909,370.938934 746.153503,370.799561 
	C743.727356,370.721008 742.644958,371.352051 741.582336,373.924713 
	C738.452820,381.501068 734.623840,388.788513 730.493164,396.512299 
	C726.121277,400.278320 722.128418,404.594635 715.419373,403.784210 
	C705.679443,402.607666 702.677368,404.926086 700.122375,415.451813 
	C713.704041,418.970825 724.154175,412.755096 734.829346,404.905273 
M624.891296,743.609070 
	C622.331482,749.773193 618.950745,754.886658 610.427673,753.418701 
	C610.404480,753.948486 610.381287,754.478271 610.358093,755.008057 
	C612.091125,757.050598 613.824158,759.093140 615.546143,761.122681 
	C613.598145,766.316772 611.449829,771.875366 609.436340,777.482361 
	C608.359253,780.481750 608.573120,783.052612 613.269592,784.036316 
	C614.176697,781.295227 614.932861,778.484375 616.027710,775.812256 
	C618.270996,770.337036 619.525757,763.719299 623.460388,759.935547 
	C626.054260,757.441040 632.612427,759.064514 637.396057,758.856018 
	C638.163025,758.822571 638.932678,758.851318 639.499512,758.851318 
	C641.176270,766.375854 634.590942,775.420227 644.577454,781.662048 
	C645.076111,774.386536 645.756042,767.984375 645.864868,761.572449 
	C645.931274,757.659790 648.020630,756.484497 651.233337,755.828918 
	C653.076599,755.452759 654.853943,754.753845 656.660889,754.200195 
	C656.562195,753.865479 656.463440,753.530762 656.364685,753.196045 
	C653.498047,752.748291 650.631348,752.300598 647.402832,751.796326 
	C649.194397,744.174744 651.024170,736.944275 652.555786,729.651123 
	C653.370605,725.771484 654.292603,721.731445 653.970032,717.863525 
	C653.771545,715.483948 651.554871,713.047180 649.678406,711.216064 
	C649.285156,710.832275 645.979248,712.623291 644.767395,714.050476 
	C641.900208,717.426880 639.484924,721.186951 636.317383,725.168518 
	C632.644043,731.124817 628.970703,737.081177 624.891296,743.609070 
M956.801270,745.028687 
	C956.549683,744.866760 956.298096,744.704773 956.142944,743.763550 
	C958.021790,738.286682 960.327271,732.911499 961.664246,727.305420 
	C963.117493,721.212219 966.192078,719.976562 973.317566,718.933655 
	C979.152466,718.079651 985.292908,717.600281 991.061218,712.011353 
	C987.880310,711.186218 985.728638,709.948486 983.807312,710.238220 
	C969.557800,712.387085 955.056641,713.626160 941.342468,719.735535 
	C941.211243,717.415039 941.488464,714.971497 940.837097,712.807556 
	C940.144653,710.507385 938.571960,708.472229 937.115417,705.835938 
	C937.115417,713.345459 937.273804,719.635254 937.083435,725.914368 
	C936.649353,740.234192 935.816406,754.530823 930.917480,768.187317 
	C929.666382,771.674866 928.068665,775.186707 923.154846,776.521606 
	C921.771667,771.163574 919.921082,766.175659 919.268738,761.035645 
	C917.676331,748.489563 916.942871,735.832825 915.284790,723.297180 
	C913.867676,712.583374 910.430969,709.892273 899.282349,708.999329 
	C899.282349,712.961670 899.613159,716.955566 899.225403,720.878418 
	C897.499329,738.338562 895.607910,755.782959 893.688293,773.223267 
	C893.022278,779.274597 894.693237,781.086609 900.149902,780.794067 
	C902.452148,760.302063 904.737183,739.963135 907.022217,719.624146 
	C909.105286,728.118225 909.789185,736.693787 911.046753,745.184387 
	C912.381226,754.192993 913.956421,763.191650 916.017639,772.057190 
	C917.215698,777.210144 921.513367,779.771790 926.554321,780.849792 
	C929.688843,781.520142 931.740540,780.658813 933.166931,777.330017 
	C937.905884,766.271179 939.609436,754.633118 940.530762,742.798218 
	C941.033997,736.333801 941.515320,729.867615 942.088867,724.259277 
	C943.506897,727.422729 945.406189,728.460876 948.670166,726.316101 
	C950.393250,725.183960 952.589417,724.771790 955.427856,723.716248 
	C953.395752,730.051086 951.429504,735.451965 949.966858,740.985962 
	C948.923401,744.934387 948.210388,748.770630 943.912048,748.700928 
	C944.351318,754.945190 944.749084,760.836304 945.199402,766.723450 
	C945.261902,767.540588 945.544983,768.349976 945.791565,769.142517 
	C948.536133,777.962219 956.016479,782.639648 963.845398,780.088440 
	C968.976929,778.416321 974.085510,776.500793 978.874817,774.050049 
	C980.433350,773.252380 980.949524,770.417725 981.942444,768.514771 
	C980.040955,768.455139 978.031372,767.965698 976.257263,768.412170 
	C969.551270,770.099609 962.974670,772.318909 956.243225,773.880066 
	C952.411011,774.768860 950.111145,772.623230 950.335999,768.622803 
	C950.511108,765.508362 950.794678,762.293762 951.768555,759.369629 
	C952.372559,757.555908 954.062134,755.428589 955.772644,754.778137 
	C962.323853,752.287048 969.255798,750.747620 975.685486,748.007690 
	C978.807129,746.677429 983.553101,747.047729 985.233582,741.406677 
	C981.998596,741.406677 979.366394,741.030212 976.883789,741.479858 
	C970.389221,742.655945 963.960083,744.192993 956.801270,745.028687 
M877.836121,505.031464 
	C892.256653,498.520172 902.404175,487.899109 904.493591,472.095123 
	C906.132141,459.701355 905.487427,446.966248 905.296814,434.391266 
	C905.229187,429.927521 903.509216,425.488831 902.433044,420.529327 
	C893.870239,424.730988 885.656555,424.790558 876.806274,423.316833 
	C867.157715,420.254791 859.862488,413.878326 855.641357,405.099365 
	C852.647278,398.872650 848.651672,397.759583 842.887451,398.483215 
	C842.238831,398.564606 841.598267,398.709686 840.060608,398.564240 
	C827.044800,398.654053 814.028931,398.743835 800.110168,398.568176 
	C787.410461,398.656158 774.710693,398.744171 761.169739,398.568665 
	C758.690613,398.551605 756.184937,398.302155 753.739807,398.582153 
	C751.246643,398.867615 748.328613,399.003540 746.439209,400.370087 
	C739.113342,405.668640 732.123230,411.431305 724.292175,417.117859 
	C716.138428,421.572357 707.733032,423.841187 698.374023,419.840942 
	C697.812927,421.515198 697.229797,423.043182 696.786560,424.610718 
	C692.679626,439.135345 693.128296,453.907501 694.885132,468.646301 
	C697.156799,487.704498 708.126160,499.941254 726.415955,506.908966 
	C737.942627,509.521881 749.469238,512.134766 761.828857,514.981628 
	C774.884644,515.598816 787.940369,516.215942 801.921570,516.982727 
	C814.934570,516.087830 827.947510,515.192993 841.743530,514.401794 
	C853.957153,512.881348 866.044678,510.883148 877.836121,505.031464 
M803.598389,663.933472 
	C802.122803,665.933105 800.839294,668.117737 799.130127,669.892578 
	C795.931274,673.214355 794.250854,672.496033 792.477966,668.271606 
	C786.313782,653.583740 786.954468,637.735840 784.380432,622.442749 
	C783.853577,619.312500 784.024780,616.070435 783.629578,612.910583 
	C783.307068,610.332275 782.359131,607.821350 782.145081,605.242615 
	C781.604675,598.733582 781.577881,592.175537 780.875671,585.687866 
	C779.815857,575.896912 776.148804,567.403870 766.015320,564.040039 
	C761.410156,562.511414 756.723022,562.401428 751.367371,564.074768 
	C743.112732,566.653870 733.929016,566.089050 725.409119,568.037292 
	C717.092224,569.939026 708.341614,569.203979 700.316223,572.848633 
	C694.303650,575.579163 687.875366,577.385742 681.806152,580.006531 
	C680.417236,580.606262 678.717102,583.011475 678.909180,584.331055 
	C680.054138,592.193298 683.822754,593.782410 690.757385,590.224243 
	C693.801697,588.662170 697.273621,587.933655 701.039429,586.661865 
	C697.539978,598.294556 694.379700,608.721191 691.273010,619.163757 
	C689.958862,623.581055 688.024597,627.093079 682.478760,626.323303 
	C681.954468,626.250549 681.336365,626.854004 680.251038,627.400879 
	C681.272583,629.906250 681.804260,632.626160 683.320923,634.582214 
	C685.356506,637.207458 685.571716,639.755859 685.124451,642.809937 
	C683.824524,651.687256 683.522583,660.526184 689.800354,667.920288 
	C695.010559,674.057068 699.832092,681.357361 709.766418,678.937256 
	C716.124573,677.388428 722.529297,675.887268 728.694031,673.736633 
	C733.130554,672.188904 737.285767,669.743042 741.374390,667.367310 
	C742.203247,666.885742 742.171814,664.923462 742.681824,663.135986 
	C743.106812,663.116272 744.461975,663.053406 745.292969,663.014832 
	C745.632080,667.381592 744.764343,672.216064 746.599243,675.573364 
	C748.652283,679.329834 753.605347,680.008423 758.523804,679.083984 
	C758.051453,672.850220 756.362976,666.655579 757.497192,661.029907 
	C758.641968,655.351562 757.995850,649.628357 759.557129,643.957642 
	C761.410034,637.227722 761.675354,630.046875 762.435425,623.040527 
	C762.607361,621.455505 761.522339,619.701965 761.796997,618.165527 
	C763.894409,606.430298 767.018494,594.856323 767.033325,582.807129 
	C767.034424,581.885437 767.471863,580.964233 767.706482,580.042847 
	C768.211426,580.057617 768.716309,580.072327 769.221252,580.087097 
	C770.473022,590.934448 771.540833,601.806946 773.020142,612.623169 
	C775.177124,628.394348 777.030640,644.244751 780.142822,659.835876 
	C782.723572,672.763977 792.041565,679.894470 803.120605,679.076294 
	C804.976196,678.939270 807.692139,677.728577 808.345215,676.268860 
	C810.961487,670.421082 813.339478,664.392944 815.013184,658.216797 
	C816.872009,651.357849 818.409363,644.493896 819.149719,637.224670 
	C820.136658,627.535217 822.013733,617.902771 822.000732,608.056824 
	C821.983887,595.330139 823.705139,582.625732 822.367615,569.875366 
	C821.780212,564.276062 821.305237,560.897278 814.218384,558.377625 
	C814.965942,564.268982 816.548401,570.194885 816.306274,576.045288 
	C815.550049,594.310974 814.890137,612.646057 812.633484,630.759949 
	C811.257629,641.804199 807.011047,652.490784 803.598389,663.933472 
M616.871948,616.230042 
	C616.090942,620.304504 615.056519,624.350342 614.591125,628.460571 
	C613.970703,633.939270 613.569275,639.360962 609.658020,643.796753 
	C609.101379,644.428101 609.390198,645.902893 609.464966,646.974915 
	C609.706970,650.447083 610.337097,653.921570 610.245117,657.380005 
	C610.135559,661.506531 609.025574,665.623413 609.086365,669.733643 
	C609.176270,675.808228 616.913025,679.894226 620.964783,677.400085 
	C620.751526,663.522949 620.650940,650.433777 628.950195,638.207947 
	C630.907593,640.467346 632.327881,642.065735 633.703613,643.701721 
	C640.121887,651.334229 646.041504,659.465881 653.082947,666.470642 
	C659.370117,672.725098 666.650635,678.084534 673.957336,683.171631 
	C678.378418,686.249695 683.569946,685.969849 689.332092,682.124390 
	C679.155518,681.313538 672.552002,675.372620 667.045959,669.355347 
	C656.324829,657.638794 646.998962,644.652344 636.916443,632.338196 
	C635.180908,630.218628 635.340454,628.570618 636.638000,626.698669 
	C643.737732,616.456482 650.346375,605.810974 658.167908,596.149292 
	C666.690063,585.622009 676.378479,576.041199 685.473206,565.970703 
	C686.216064,565.148071 686.869080,563.574646 686.602417,562.618103 
	C684.810181,556.188416 678.082275,554.160583 673.879944,559.073792 
	C664.364441,570.198792 655.061646,581.517883 646.017883,593.029480 
	C641.097168,599.293030 636.904236,606.126526 632.329041,612.665100 
	C631.598450,613.709167 630.582764,614.553833 628.721802,616.526306 
	C629.012390,613.610291 629.040955,612.283875 629.288696,610.999634 
	C631.868530,597.622803 634.436523,584.243469 637.107056,570.884644 
	C638.626770,563.282166 636.332703,559.918335 627.705200,558.357910 
	C624.136719,577.360229 620.565918,596.374695 616.871948,616.230042 
M667.198975,759.065674 
	C670.570923,744.005920 673.911499,728.938965 677.330811,713.890015 
	C678.620239,708.215210 677.208191,705.774597 671.763123,704.354187 
	C668.968567,715.818909 665.879578,727.228455 663.469177,738.779602 
	C661.542969,748.010071 659.871277,757.367920 659.132507,766.751526 
	C658.352905,776.653076 668.035583,783.686096 677.256165,779.964661 
	C681.860779,778.106262 685.676575,774.293579 689.767456,771.422180 
	C694.658325,781.343567 703.228333,784.008301 712.701965,777.772461 
	C715.072021,776.212402 716.790649,773.685730 718.905090,771.706421 
	C720.499023,770.214478 722.247009,768.887024 723.926453,767.486389 
	C714.477417,768.465881 707.075439,775.278809 696.773865,774.822083 
	C697.109802,769.598755 696.877991,764.737000 697.820129,760.114563 
	C700.866394,745.168884 704.255371,730.290649 707.694824,715.428589 
	C709.290344,708.534363 708.194519,705.971802 702.200989,704.361755 
	C701.640869,706.945190 701.081360,709.528809 700.520386,712.112122 
	C697.044006,728.119690 692.833740,744.019287 690.454529,760.188416 
	C689.512634,766.589355 686.789185,769.099182 681.748108,770.872986 
	C676.954407,772.559753 672.108521,774.098022 666.256653,776.043701 
	C666.606689,769.528931 666.863098,764.756836 667.198975,759.065674 
M797.958313,717.801392 
	C795.147888,711.167725 789.971191,708.684143 783.056213,709.007996 
	C783.056213,712.927368 783.369629,716.595032 783.003113,720.193420 
	C781.207642,737.819397 779.245605,755.428528 777.310730,773.040100 
	C776.638428,779.159790 778.208069,780.857178 783.844299,780.824951 
	C786.108887,760.564575 788.362366,740.402710 790.615906,720.240906 
	C791.039124,720.229553 791.462341,720.218201 791.885620,720.206848 
	C792.582031,725.902405 793.233154,731.603943 793.984985,737.292175 
	C795.311829,747.331787 796.446655,757.406555 798.150635,767.383118 
	C799.312073,774.182922 802.777832,779.480774 810.305847,780.846436 
	C813.463867,781.419373 815.888428,780.882874 816.794495,777.307617 
	C818.824463,769.297302 821.886230,761.405884 822.754700,753.276611 
	C824.143616,740.275146 824.089478,727.119751 824.652283,714.029724 
	C824.802002,710.549744 823.606201,707.928955 819.824158,706.502014 
	C819.882080,707.527893 819.872742,708.311707 819.977539,709.080017 
	C822.347839,726.454346 820.495544,743.621887 816.861389,760.588257 
	C815.816467,765.466614 813.287476,770.150696 810.776367,774.545288 
	C809.263977,777.192139 806.697693,777.085388 806.093445,773.503113 
	C804.443176,763.718933 802.956848,753.905579 801.528137,744.085999 
	C800.293213,735.597473 799.226379,727.084534 797.958313,717.801392 
M880.839050,761.210266 
	C882.455994,756.725098 883.766174,752.096497 885.777344,747.795776 
	C887.724365,743.632263 889.781677,739.941772 889.716003,734.869141 
	C889.592896,725.355774 885.301514,717.120239 876.770752,713.231506 
	C865.945923,708.296997 859.687073,710.887695 855.598999,721.999817 
	C855.371033,722.619629 855.163574,723.248230 854.975464,723.881348 
	C851.336914,736.129272 849.193237,748.530579 849.823730,761.419800 
	C850.226562,769.653564 854.537292,777.212097 862.058044,780.387146 
	C865.373047,781.786621 868.359558,781.722534 870.512451,777.948975 
	C873.630493,772.484192 877.096069,767.217712 880.839050,761.210266 
M753.112610,714.005920 
	C751.134949,714.275330 749.049927,714.247559 747.214722,714.911011 
	C745.823303,715.414124 744.750244,716.797729 743.535461,717.789490 
	C745.131226,719.156372 746.539795,721.183411 748.375427,721.703857 
	C750.199036,722.220886 752.452209,721.222534 755.185730,720.780579 
	C753.300171,737.115723 751.482178,752.864929 749.659485,768.655334 
	C747.058228,769.004272 744.678772,769.323425 742.205383,769.655212 
	C743.781555,778.958252 752.951721,774.098938 755.797485,777.785461 
	C757.557312,776.385864 758.740662,774.898987 760.264160,774.341125 
	C763.988953,772.977051 767.966614,772.282654 771.643433,770.818665 
	C773.144287,770.221130 774.130310,768.330688 775.350525,767.028381 
	C773.595520,766.408325 771.773682,765.128235 770.098572,765.297668 
	C765.857361,765.726685 761.682007,766.806519 757.127502,767.694458 
	C757.127502,766.090210 757.004517,764.773499 757.146484,763.485962 
	C758.565186,750.621094 760.343323,737.785339 761.339600,724.888794 
	C761.812500,718.766663 765.060791,716.856628 770.254028,715.977417 
	C773.769958,715.382080 777.203491,714.300354 780.868164,713.387817 
	C779.253662,707.258301 775.012756,708.779785 771.501404,709.183350 
	C766.674133,709.737976 761.892761,710.691467 757.091675,711.473999 
	C757.662048,711.741150 758.232422,712.008362 758.802795,712.275574 
	C757.182434,712.802002 755.562134,713.328430 753.112610,714.005920 
M981.337646,634.950500 
	C981.422546,634.841858 981.507385,634.733215 981.592224,634.624573 
	C981.504272,634.646912 981.416382,634.669312 981.337646,634.950500 
M821.480347,641.243652 
	C821.480347,641.243652 821.388062,641.457336 821.388062,641.457336 
	C821.388062,641.457336 821.582397,641.409058 821.480347,641.243652 
M980.566711,637.464783 
	C980.566711,637.464783 980.465698,637.534119 980.566711,637.464783 
z"/>
<path fill="#1B1B1B" opacity="1.000000" stroke="none" 
	d="
M803.826111,663.635742 
	C807.011047,652.490784 811.257629,641.804199 812.633484,630.759949 
	C814.890137,612.646057 815.550049,594.310974 816.306274,576.045288 
	C816.548401,570.194885 814.965942,564.268982 814.216125,558.377930 
	C821.305237,560.897278 821.780212,564.276062 822.367615,569.875366 
	C823.705139,582.625732 821.983887,595.330139 822.000732,608.056824 
	C822.013733,617.902771 820.136658,627.535217 819.149719,637.224670 
	C818.409363,644.493896 816.872009,651.357849 815.013184,658.216797 
	C813.339478,664.392944 810.961487,670.421082 808.345215,676.268860 
	C807.692139,677.728577 804.976196,678.939270 803.120605,679.076294 
	C792.041565,679.894470 782.723572,672.763977 780.142822,659.835876 
	C777.030640,644.244751 775.177124,628.394348 773.020142,612.623169 
	C771.540833,601.806946 770.473022,590.934448 769.221252,580.087097 
	C768.716309,580.072327 768.211426,580.057617 767.706482,580.042847 
	C767.471863,580.964233 767.034424,581.885437 767.033325,582.807129 
	C767.018494,594.856323 763.894409,606.430298 761.796997,618.165527 
	C761.522339,619.701965 762.607361,621.455505 762.435425,623.040527 
	C761.675354,630.046875 761.410034,637.227722 759.557129,643.957642 
	C757.995850,649.628357 758.641968,655.351562 757.497192,661.029907 
	C756.362976,666.655579 758.051453,672.850220 758.523804,679.083984 
	C753.605347,680.008423 748.652283,679.329834 746.599243,675.573364 
	C744.764343,672.216064 745.632080,667.381592 745.292969,663.014832 
	C744.461975,663.053406 743.106812,663.116272 742.681824,663.135986 
	C742.171814,664.923462 742.203247,666.885742 741.374390,667.367310 
	C737.285767,669.743042 733.130554,672.188904 728.694031,673.736633 
	C722.529297,675.887268 716.124573,677.388428 709.766418,678.937256 
	C699.832092,681.357361 695.010559,674.057068 689.800354,667.920288 
	C683.522583,660.526184 683.824524,651.687256 685.124451,642.809937 
	C685.571716,639.755859 685.356506,637.207458 683.320923,634.582214 
	C681.804260,632.626160 681.272583,629.906250 680.251038,627.400879 
	C681.336365,626.854004 681.954468,626.250549 682.478760,626.323303 
	C688.024597,627.093079 689.958862,623.581055 691.273010,619.163757 
	C694.379700,608.721191 697.539978,598.294556 701.039429,586.661865 
	C697.273621,587.933655 693.801697,588.662170 690.757385,590.224243 
	C683.822754,593.782410 680.054138,592.193298 678.909180,584.331055 
	C678.717102,583.011475 680.417236,580.606262 681.806152,580.006531 
	C687.875366,577.385742 694.303650,575.579163 700.316223,572.848633 
	C708.341614,569.203979 717.092224,569.939026 725.409119,568.037292 
	C733.929016,566.089050 743.112732,566.653870 751.367371,564.074768 
	C756.723022,562.401428 761.410156,562.511414 766.015320,564.040039 
	C776.148804,567.403870 779.815857,575.896912 780.875671,585.687866 
	C781.577881,592.175537 781.604675,598.733582 782.145081,605.242615 
	C782.359131,607.821350 783.307068,610.332275 783.629578,612.910583 
	C784.024780,616.070435 783.853577,619.312500 784.380432,622.442749 
	C786.954468,637.735840 786.313782,653.583740 792.477966,668.271606 
	C794.250854,672.496033 795.931274,673.214355 799.130127,669.892578 
	C800.839294,668.117737 802.122803,665.933105 803.826111,663.635742 
M694.583679,646.653992 
	C694.062622,651.103271 693.276062,655.541321 693.085938,660.004700 
	C692.833557,665.931946 694.902893,668.797241 700.637939,667.732178 
	C712.171936,665.590088 723.456970,662.100769 734.834656,659.129150 
	C737.029846,658.555847 739.324463,657.017090 741.305847,657.380737 
	C743.009705,657.693420 744.331970,660.085327 745.829163,661.563965 
	C749.193726,631.925476 755.440308,602.252808 754.976929,572.000366 
	C745.797852,576.097412 736.589539,578.272522 726.228394,578.976868 
	C724.940186,579.559875 723.651917,580.142822 721.665039,580.767029 
	C719.081604,582.205017 715.406921,583.018005 714.148743,585.214966 
	C711.753357,589.397522 710.738220,594.370544 708.681702,599.590576 
	C708.560669,600.048157 708.439575,600.505798 708.131592,601.292664 
	C708.066772,601.574829 708.150085,601.802979 707.832825,602.274902 
	C707.803406,603.218994 707.773926,604.163025 707.252808,605.564758 
	C705.786133,609.685364 704.319397,613.806030 702.311646,618.206848 
	C702.201172,618.802307 702.090759,619.397827 701.486877,620.307861 
	C701.397949,620.870422 701.308960,621.432922 701.199097,622.674927 
	C702.000488,622.506897 702.801941,622.338928 704.363159,622.121582 
	C712.517822,620.260437 720.645508,618.268921 728.835510,616.579102 
	C735.477966,615.208496 742.202087,612.977478 749.362183,616.649658 
	C748.586670,618.377441 748.294678,620.738953 747.125305,621.312866 
	C743.602966,623.041504 739.739197,624.074524 735.373901,625.282898 
	C734.800354,625.813782 734.226807,626.344727 732.970825,626.744629 
	C727.649353,628.263428 722.327881,629.782288 716.352844,631.151978 
	C715.574707,631.484558 714.796570,631.817139 713.505127,632.045837 
	C713.337891,632.096069 713.170654,632.146362 712.332397,632.082886 
	C711.168579,632.696838 710.004761,633.310730 708.121826,633.999939 
	C703.534485,636.956116 695.219543,635.106628 695.018921,644.646362 
	C695.007141,645.097534 694.995422,645.548645 694.583679,646.653992 
z"/>
<path fill="#1C1C1C" opacity="1.000000" stroke="none" 
	d="
M912.795532,624.419067 
	C912.614990,624.719727 912.434448,625.020447 911.631592,625.422852 
	C909.836121,625.408752 908.097107,624.737366 907.578979,625.265015 
	C903.299438,629.622437 899.246277,634.202148 895.006897,638.843323 
	C895.808960,639.377808 896.625183,639.921692 897.441345,640.465576 
	C895.013428,642.361389 892.545837,644.209473 890.177246,646.176758 
	C889.239746,646.955322 888.522217,647.998718 887.865356,648.826538 
	C887.286560,648.138000 886.567810,647.511108 885.769592,647.010803 
	C885.702393,646.968689 884.721252,647.958557 884.816345,648.156921 
	C885.237671,649.036621 885.896790,649.802368 886.469849,650.609375 
	C883.908264,652.717102 881.346680,654.824890 878.028931,656.933228 
	C872.403870,656.095825 870.788635,660.576355 867.510010,662.878601 
	C867.097839,663.542664 866.938782,664.079712 866.779663,664.616821 
	C867.269287,664.156921 867.758972,663.697021 868.419556,663.459473 
	C868.712524,664.423340 868.834534,665.164917 868.956543,665.906494 
	C863.906799,670.107727 858.976929,674.471130 853.704163,678.370972 
	C852.672241,679.134338 849.706116,678.739075 848.684387,677.769470 
	C846.248169,675.457153 844.440430,672.482727 842.232056,669.582886 
	C844.099670,668.139343 845.385254,667.145691 846.670898,666.151978 
	C846.270630,666.130005 845.870422,666.108032 845.470154,666.086060 
	C845.470154,661.793823 844.784546,657.367737 845.591492,653.232910 
	C848.719604,637.203674 852.431885,621.289490 855.690308,605.284302 
	C856.841003,599.632263 857.315430,593.842468 858.326050,586.452942 
	C853.191467,589.488281 848.836731,591.517700 845.147705,594.399414 
	C841.586914,597.180908 838.712646,600.841370 834.751221,604.925659 
	C832.834900,602.196655 830.230591,598.969727 828.290710,595.383240 
	C827.811096,594.496643 829.150574,592.124390 830.229736,590.976501 
	C838.051453,582.656799 848.246704,578.162231 858.525940,573.863281 
	C869.023926,569.472778 879.963379,567.393311 891.361206,567.090332 
	C907.567139,566.659729 919.230225,573.968933 927.652405,587.300049 
	C928.182373,588.138916 928.656067,589.013306 929.176941,589.858276 
	C929.255676,589.986023 929.449097,590.043091 929.696411,590.201172 
	C932.137817,584.798645 934.302673,579.265137 937.074463,574.054382 
	C940.919128,566.826721 943.106079,566.654846 951.379395,566.838440 
	C960.051086,567.030884 968.081299,568.454895 974.447937,574.393494 
	C978.879456,578.527100 983.494690,583.132141 985.982422,588.478271 
	C988.130798,593.095093 989.367004,598.733521 987.720093,604.501282 
	C986.742981,607.923218 987.541260,611.852173 987.541260,615.169861 
	C985.258301,618.850403 983.013306,622.469788 980.281372,625.868042 
	C979.373596,625.627869 978.952759,625.608704 978.531860,625.589478 
	C978.720276,626.067810 978.908691,626.546082 979.097046,627.024414 
	C979.150940,627.190063 979.204895,627.355774 978.902710,627.788330 
	C978.368042,628.348450 978.189514,628.641785 977.679626,629.067688 
	C977.233459,630.130859 977.118652,631.061523 976.960693,632.328491 
	C977.585632,633.117920 978.253723,633.571045 978.921814,634.024231 
	C978.943665,634.631775 978.965576,635.239380 978.419312,635.969299 
	C974.770447,635.592468 973.135071,638.025696 973.897034,641.974915 
	C973.082764,644.491028 972.384460,647.052490 971.422241,649.510681 
	C970.418457,652.075256 969.292480,654.612122 967.977966,657.029541 
	C966.523560,659.704163 964.796326,662.230530 963.185242,664.819824 
	C960.904602,668.485291 958.859863,672.328735 956.272766,675.763550 
	C953.679443,679.206543 949.893494,680.408325 945.639465,679.309875 
	C932.623718,675.949219 922.024658,659.894592 923.237793,646.460449 
	C924.229370,635.480469 924.414307,624.427734 924.955505,613.407227 
	C925.035950,611.769897 925.294495,609.847473 922.360718,611.933716 
	C921.130798,611.717407 920.417847,611.628784 919.704895,611.540222 
	C919.885925,614.877502 916.527283,614.481201 914.812866,616.124634 
	C914.738647,616.621277 914.843689,617.001526 914.927368,617.418823 
	C914.906067,617.455872 914.923279,617.539490 914.567139,617.709473 
	C912.545288,619.800964 909.838257,621.497009 912.795532,624.419067 
M934.830383,618.310425 
	C934.662903,618.482910 934.495483,618.655457 934.328003,618.827942 
	C934.442993,618.908142 934.616638,619.081787 934.663147,619.052673 
	C934.889038,618.910889 935.080872,618.714783 934.347900,619.069275 
	C934.445618,621.508545 935.007324,624.037720 934.555542,626.370605 
	C933.097473,633.899597 931.674561,641.351135 933.186279,649.076355 
	C934.238770,654.455078 934.513428,660.009583 935.864746,665.299316 
	C937.142212,670.299744 938.837280,670.749146 943.497192,668.416870 
	C944.806641,667.761414 946.199402,666.908691 947.055115,665.771179 
	C951.674194,659.631348 956.773499,653.732483 960.521240,647.082214 
	C968.541016,632.851318 975.839661,618.190186 978.460266,601.794678 
	C979.596069,594.688171 980.123779,587.521118 975.380859,581.219788 
	C971.936951,576.644287 963.121033,576.134827 960.508240,580.731750 
	C958.988098,579.801208 957.576172,578.552979 955.936096,578.052246 
	C954.580383,577.638245 952.342773,577.489929 951.544312,578.281494 
	C944.054321,585.707275 940.800232,595.434448 937.829407,605.182983 
	C936.499756,609.546326 936.056702,614.179932 934.830383,618.310425 
M891.302551,629.765320 
	C899.116821,620.764526 907.101196,611.903076 914.650879,602.685547 
	C917.206055,599.565918 919.154541,595.714905 920.468933,591.885376 
	C921.582397,588.641296 921.732178,584.632019 917.980042,582.554382 
	C914.677307,580.725586 911.128174,579.047180 907.479370,578.193481 
	C896.533081,575.632385 885.689575,577.359741 875.053162,580.213806 
	C873.160889,580.721558 871.094421,582.698853 870.256409,584.524597 
	C868.969543,587.328369 868.581116,590.570007 867.979492,593.658630 
	C864.681580,610.590210 861.423462,627.529663 858.177002,644.471191 
	C857.166626,649.743896 856.235657,655.031860 855.268311,660.312805 
	C855.699585,660.535400 856.130859,660.757935 856.562134,660.980530 
	C867.989014,650.761719 879.415894,640.542969 891.302551,629.765320 
z"/>
<path fill="#CB1A23" opacity="1.000000" stroke="none" 
	d="
M801.013123,398.833618 
	C814.028931,398.743835 827.044800,398.654053 840.521606,399.108643 
	C840.975281,437.868073 840.967896,476.083069 840.960510,514.298096 
	C827.947510,515.192993 814.934570,516.087830 801.460144,516.450012 
	C801.003540,476.889404 801.008301,437.861542 801.013123,398.833618 
z"/>
<path fill="#B21821" opacity="1.000000" stroke="none" 
	d="
M800.561646,398.700928 
	C801.008301,437.861542 801.003540,476.889404 800.997437,516.375244 
	C787.940369,516.215942 774.884644,515.598816 761.489685,514.469543 
	C761.433716,511.670532 761.960083,509.383972 761.963623,507.096588 
	C762.019043,471.008514 762.007324,434.920319 762.010986,398.832153 
	C774.710693,398.744171 787.410461,398.656158 800.561646,398.700928 
z"/>
<path fill="#9B1720" opacity="1.000000" stroke="none" 
	d="
M761.590332,398.700409 
	C762.007324,434.920319 762.019043,471.008514 761.963623,507.096588 
	C761.960083,509.383972 761.433716,511.670532 761.073242,514.352539 
	C749.469238,512.134766 737.942627,509.521881 726.210510,506.262268 
	C726.336609,503.499237 726.951050,501.383636 726.956665,499.266418 
	C727.023499,474.002747 727.048157,448.738586 726.913513,423.475433 
	C726.902039,421.320679 725.671936,419.172455 725.008057,417.021179 
	C732.123230,411.431305 739.113342,405.668640 746.439209,400.370087 
	C748.328613,399.003540 751.246643,398.867615 753.739807,398.582153 
	C756.184937,398.302155 758.690613,398.551605 761.590332,398.700409 
z"/>
<path fill="#E21F28" opacity="1.000000" stroke="none" 
	d="
M841.352051,514.349976 
	C840.967896,476.083069 840.975281,437.868073 840.968323,399.239136 
	C841.598267,398.709686 842.238831,398.564606 842.887451,398.483215 
	C848.651672,397.759583 852.647278,398.872650 855.641357,405.099365 
	C859.862488,413.878326 867.157715,420.254791 876.705872,423.773224 
	C876.070496,425.878387 875.076660,427.525146 875.069519,429.176178 
	C874.968262,452.759521 874.956238,476.343750 875.091614,499.926819 
	C875.101440,501.641571 876.414734,503.348877 877.121948,505.059631 
	C866.044678,510.883148 853.957153,512.881348 841.352051,514.349976 
z"/>
<path fill="#181818" opacity="1.000000" stroke="none" 
	d="
M616.933533,615.809570 
	C620.565918,596.374695 624.136719,577.360229 627.705200,558.357910 
	C636.332703,559.918335 638.626770,563.282166 637.107056,570.884644 
	C634.436523,584.243469 631.868530,597.622803 629.288696,610.999634 
	C629.040955,612.283875 629.012390,613.610291 628.721802,616.526306 
	C630.582764,614.553833 631.598450,613.709167 632.329041,612.665100 
	C636.904236,606.126526 641.097168,599.293030 646.017883,593.029480 
	C655.061646,581.517883 664.364441,570.198792 673.879944,559.073792 
	C678.082275,554.160583 684.810181,556.188416 686.602417,562.618103 
	C686.869080,563.574646 686.216064,565.148071 685.473206,565.970703 
	C676.378479,576.041199 666.690063,585.622009 658.167908,596.149292 
	C650.346375,605.810974 643.737732,616.456482 636.638000,626.698669 
	C635.340454,628.570618 635.180908,630.218628 636.916443,632.338196 
	C646.998962,644.652344 656.324829,657.638794 667.045959,669.355347 
	C672.552002,675.372620 679.155518,681.313538 689.332092,682.124390 
	C683.569946,685.969849 678.378418,686.249695 673.957336,683.171631 
	C666.650635,678.084534 659.370117,672.725098 653.082947,666.470642 
	C646.041504,659.465881 640.121887,651.334229 633.703613,643.701721 
	C632.327881,642.065735 630.907593,640.467346 628.950195,638.207947 
	C620.650940,650.433777 620.751526,663.522949 620.964783,677.400085 
	C616.913025,679.894226 609.176270,675.808228 609.086365,669.733643 
	C609.025574,665.623413 610.135559,661.506531 610.245117,657.380005 
	C610.337097,653.921570 609.706970,650.447083 609.464966,646.974915 
	C609.390198,645.902893 609.101379,644.428101 609.658020,643.796753 
	C613.569275,639.360962 613.970703,633.939270 614.591125,628.460571 
	C615.056519,624.350342 616.090942,620.304504 616.933533,615.809570 
z"/>
<path fill="#88161F" opacity="1.000000" stroke="none" 
	d="
M724.650146,417.069519 
	C725.671936,419.172455 726.902039,421.320679 726.913513,423.475433 
	C727.048157,448.738586 727.023499,474.002747 726.956665,499.266418 
	C726.951050,501.383636 726.336609,503.499237 725.927307,506.063263 
	C708.126160,499.941254 697.156799,487.704498 694.885132,468.646301 
	C693.128296,453.907501 692.679626,439.135345 696.786560,424.610718 
	C697.229797,423.043182 697.812927,421.515198 698.374023,419.840942 
	C707.733032,423.841187 716.138428,421.572357 724.650146,417.069519 
z"/>
<path fill="#F51F28" opacity="1.000000" stroke="none" 
	d="
M877.479004,505.045563 
	C876.414734,503.348877 875.101440,501.641571 875.091614,499.926819 
	C874.956238,476.343750 874.968262,452.759521 875.069519,429.176178 
	C875.076660,427.525146 876.070496,425.878387 876.969238,424.018738 
	C885.656555,424.790558 893.870239,424.730988 902.433044,420.529327 
	C903.509216,425.488831 905.229187,429.927521 905.296814,434.391266 
	C905.487427,446.966248 906.132141,459.701355 904.493591,472.095123 
	C902.404175,487.899109 892.256653,498.520172 877.479004,505.045563 
z"/>
<path fill="#1D1D1D" opacity="1.000000" stroke="none" 
	d="
M667.159241,759.525146 
	C666.863098,764.756836 666.606689,769.528931 666.256653,776.043701 
	C672.108521,774.098022 676.954407,772.559753 681.748108,770.872986 
	C686.789185,769.099182 689.512634,766.589355 690.454529,760.188416 
	C692.833740,744.019287 697.044006,728.119690 700.520386,712.112122 
	C701.081360,709.528809 701.640869,706.945190 702.198364,704.361084 
	C708.194519,705.971802 709.290344,708.534363 707.694824,715.428589 
	C704.255371,730.290649 700.866394,745.168884 697.820129,760.114563 
	C696.877991,764.737000 697.109802,769.598755 696.773865,774.822083 
	C707.075439,775.278809 714.477417,768.465881 723.926453,767.486389 
	C722.247009,768.887024 720.499023,770.214478 718.905090,771.706421 
	C716.790649,773.685730 715.072021,776.212402 712.701965,777.772461 
	C703.228333,784.008301 694.658325,781.343567 689.767456,771.422180 
	C685.676575,774.293579 681.860779,778.106262 677.256165,779.964661 
	C668.035583,783.686096 658.352905,776.653076 659.132507,766.751526 
	C659.871277,757.367920 661.542969,748.010071 663.469177,738.779602 
	C665.879578,727.228455 668.968567,715.818909 671.763123,704.354187 
	C677.208191,705.774597 678.620239,708.215210 677.330811,713.890015 
	C673.911499,728.938965 670.570923,744.005920 667.159241,759.525146 
z"/>
<path fill="#212222" opacity="1.000000" stroke="none" 
	d="
M942.006470,723.402222 
	C941.515320,729.867615 941.033997,736.333801 940.530762,742.798218 
	C939.609436,754.633118 937.905884,766.271179 933.166931,777.330017 
	C931.740540,780.658813 929.688843,781.520142 926.554321,780.849792 
	C921.513367,779.771790 917.215698,777.210144 916.017639,772.057190 
	C913.956421,763.191650 912.381226,754.192993 911.046753,745.184387 
	C909.789185,736.693787 909.105286,728.118225 907.022217,719.624146 
	C904.737183,739.963135 902.452148,760.302063 900.149902,780.794067 
	C894.693237,781.086609 893.022278,779.274597 893.688293,773.223267 
	C895.607910,755.782959 897.499329,738.338562 899.225403,720.878418 
	C899.613159,716.955566 899.282349,712.961670 899.282349,708.999329 
	C910.430969,709.892273 913.867676,712.583374 915.284790,723.297180 
	C916.942871,735.832825 917.676331,748.489563 919.268738,761.035645 
	C919.921082,766.175659 921.771667,771.163574 923.154846,776.521606 
	C928.068665,775.186707 929.666382,771.674866 930.917480,768.187317 
	C935.816406,754.530823 936.649353,740.234192 937.083435,725.914368 
	C937.273804,719.635254 937.115417,713.345459 937.115417,705.835938 
	C938.571960,708.472229 940.144653,710.507385 940.837097,712.807556 
	C941.488464,714.971497 941.211243,717.415039 941.652954,720.314819 
	C941.977844,721.730103 941.992126,722.566162 942.006470,723.402222 
z"/>
<path fill="#202020" opacity="1.000000" stroke="none" 
	d="
M798.021729,718.191895 
	C799.226379,727.084534 800.293213,735.597473 801.528137,744.085999 
	C802.956848,753.905579 804.443176,763.718933 806.093445,773.503113 
	C806.697693,777.085388 809.263977,777.192139 810.776367,774.545288 
	C813.287476,770.150696 815.816467,765.466614 816.861389,760.588257 
	C820.495544,743.621887 822.347839,726.454346 819.977539,709.080017 
	C819.872742,708.311707 819.882080,707.527893 819.824158,706.502014 
	C823.606201,707.928955 824.802002,710.549744 824.652283,714.029724 
	C824.089478,727.119751 824.143616,740.275146 822.754700,753.276611 
	C821.886230,761.405884 818.824463,769.297302 816.794495,777.307617 
	C815.888428,780.882874 813.463867,781.419373 810.305847,780.846436 
	C802.777832,779.480774 799.312073,774.182922 798.150635,767.383118 
	C796.446655,757.406555 795.311829,747.331787 793.984985,737.292175 
	C793.233154,731.603943 792.582031,725.902405 791.885620,720.206848 
	C791.462341,720.218201 791.039124,720.229553 790.615906,720.240906 
	C788.362366,740.402710 786.108887,760.564575 783.844299,780.824951 
	C778.208069,780.857178 776.638428,779.159790 777.310730,773.040100 
	C779.245605,755.428528 781.207642,737.819397 783.003113,720.193420 
	C783.369629,716.595032 783.056213,712.927368 783.056213,709.007996 
	C789.971191,708.684143 795.147888,711.167725 798.021729,718.191895 
z"/>
<path fill="#911720" opacity="1.000000" stroke="none" 
	d="
M772.979370,365.616547 
	C763.721863,365.616547 754.464355,365.616547 745.799927,365.616547 
	C746.479675,353.905853 746.945129,342.337952 747.896912,330.810211 
	C748.474854,323.809723 751.411804,318.041992 758.903564,315.385071 
	C759.009338,315.037415 759.025757,315.126343 759.025757,315.126343 
	C763.603149,316.157227 768.180481,317.188080 772.889893,319.026245 
	C773.007690,335.094543 772.993530,350.355560 772.979370,365.616547 
z"/>
<path fill="#202020" opacity="1.000000" stroke="none" 
	d="
M942.047668,723.830750 
	C941.992126,722.566162 941.977844,721.730103 941.940918,720.641418 
	C955.056641,713.626160 969.557800,712.387085 983.807312,710.238220 
	C985.728638,709.948486 987.880310,711.186218 991.061218,712.011353 
	C985.292908,717.600281 979.152466,718.079651 973.317566,718.933655 
	C966.192078,719.976562 963.117493,721.212219 961.664246,727.305420 
	C960.327271,732.911499 958.021790,738.286682 955.880249,744.407593 
	C956.246582,745.229858 956.875732,745.408020 957.504822,745.586182 
	C963.960083,744.192993 970.389221,742.655945 976.883789,741.479858 
	C979.366394,741.030212 981.998596,741.406677 985.233582,741.406677 
	C983.553101,747.047729 978.807129,746.677429 975.685486,748.007690 
	C969.255798,750.747620 962.323853,752.287048 955.772644,754.778137 
	C954.062134,755.428589 952.372559,757.555908 951.768555,759.369629 
	C950.794678,762.293762 950.511108,765.508362 950.335999,768.622803 
	C950.111145,772.623230 952.411011,774.768860 956.243225,773.880066 
	C962.974670,772.318909 969.551270,770.099609 976.257263,768.412170 
	C978.031372,767.965698 980.040955,768.455139 981.942505,768.514771 
	C980.949524,770.417725 980.433350,773.252380 978.874817,774.050049 
	C974.085510,776.500793 968.976929,778.416321 963.845398,780.088440 
	C956.016479,782.639648 948.536133,777.962219 945.791565,769.142517 
	C945.544983,768.349976 945.261902,767.540588 945.199402,766.723450 
	C944.749084,760.836304 944.351318,754.945190 943.912048,748.700928 
	C948.210388,748.770630 948.923401,744.934387 949.966858,740.985962 
	C951.429504,735.451965 953.395752,730.051086 955.427856,723.716248 
	C952.589417,724.771790 950.393250,725.183960 948.670166,726.316101 
	C945.406189,728.460876 943.506897,727.422729 942.047668,723.830750 
z"/>
<path fill="#232323" opacity="1.000000" stroke="none" 
	d="
M880.626221,761.538452 
	C877.096069,767.217712 873.630493,772.484192 870.512451,777.948975 
	C868.359558,781.722534 865.373047,781.786621 862.058044,780.387146 
	C854.537292,777.212097 850.226562,769.653564 849.823730,761.419800 
	C849.193237,748.530579 851.336914,736.129272 854.975464,723.881348 
	C855.163574,723.248230 855.371033,722.619629 855.598999,721.999817 
	C859.687073,710.887695 865.945923,708.296997 876.770752,713.231506 
	C885.301514,717.120239 889.592896,725.355774 889.716003,734.869141 
	C889.781677,739.941772 887.724365,743.632263 885.777344,747.795776 
	C883.766174,752.096497 882.455994,756.725098 880.626221,761.538452 
M874.076294,718.318726 
	C872.285034,718.523254 870.493835,718.727783 868.702576,718.932312 
	C868.465576,718.465027 868.228577,717.997742 867.991577,717.530457 
	C866.093079,720.384338 863.882629,723.081299 862.353394,726.120911 
	C857.376953,736.012451 856.209534,746.770691 856.083130,757.630432 
	C856.029968,762.198425 856.463989,766.853821 857.374329,771.327454 
	C858.225586,775.510803 860.612183,776.359436 863.600769,773.291504 
	C867.245178,769.550354 870.548828,765.253174 873.062866,760.681152 
	C878.566101,750.672913 883.973511,740.514099 884.184021,728.613403 
	C884.315979,721.153137 882.241882,718.792114 874.076294,718.318726 
z"/>
<path fill="#1D1D1D" opacity="1.000000" stroke="none" 
	d="
M636.886963,724.791870 
	C639.484924,721.186951 641.900208,717.426880 644.767395,714.050476 
	C645.979248,712.623291 649.285156,710.832275 649.678406,711.216064 
	C651.554871,713.047180 653.771545,715.483948 653.970032,717.863525 
	C654.292603,721.731445 653.370605,725.771484 652.555786,729.651123 
	C651.024170,736.944275 649.194397,744.174744 647.402832,751.796326 
	C650.631348,752.300598 653.498047,752.748291 656.364685,753.196045 
	C656.463440,753.530762 656.562195,753.865479 656.660889,754.200195 
	C654.853943,754.753845 653.076599,755.452759 651.233337,755.828918 
	C648.020630,756.484497 645.931274,757.659790 645.864868,761.572449 
	C645.756042,767.984375 645.076111,774.386536 644.577454,781.662048 
	C634.590942,775.420227 641.176270,766.375854 639.499512,758.851318 
	C638.932678,758.851318 638.163025,758.822571 637.396057,758.856018 
	C632.612427,759.064514 626.054260,757.441040 623.460388,759.935547 
	C619.525757,763.719299 618.270996,770.337036 616.027710,775.812256 
	C614.932861,778.484375 614.176697,781.295227 613.269592,784.036316 
	C608.573120,783.052612 608.359253,780.481750 609.436340,777.482361 
	C611.449829,771.875366 613.598145,766.316772 615.546143,761.122681 
	C613.824158,759.093140 612.091125,757.050598 610.358093,755.008057 
	C610.381287,754.478271 610.404480,753.948486 610.427673,753.418701 
	C618.950745,754.886658 622.331482,749.773193 625.396240,743.332397 
	C627.309570,743.790100 628.717957,744.524475 630.056274,745.599365 
	C628.977905,748.075623 627.969604,750.211304 627.084656,752.085571 
	C631.923157,752.085571 636.411682,752.085571 640.745483,752.085571 
	C643.323486,741.239258 645.754883,731.009888 648.360046,720.049316 
	C646.376343,721.851440 645.189087,722.930054 643.760376,723.777710 
	C642.435547,723.865234 641.368408,724.270386 640.264099,724.477539 
	C639.157654,724.685120 638.014160,724.695251 636.886963,724.791870 
M625.446045,750.780151 
	C625.423645,750.405884 625.401245,750.031677 625.378784,749.657410 
	C625.223877,750.082092 625.068970,750.506775 624.687256,751.071350 
	C624.808105,751.068359 624.928955,751.065369 625.446045,750.780151 
z"/>
<path fill="#1C1C1C" opacity="1.000000" stroke="none" 
	d="
M753.527222,713.930420 
	C755.562134,713.328430 757.182434,712.802002 758.802795,712.275574 
	C758.232422,712.008362 757.662048,711.741150 757.091675,711.473999 
	C761.892761,710.691467 766.674133,709.737976 771.501404,709.183350 
	C775.012756,708.779785 779.253662,707.258301 780.868164,713.387817 
	C777.203491,714.300354 773.769958,715.382080 770.254028,715.977417 
	C765.060791,716.856628 761.812500,718.766663 761.339600,724.888794 
	C760.343323,737.785339 758.565186,750.621094 757.146484,763.485962 
	C757.004517,764.773499 757.127502,766.090210 757.127502,767.694458 
	C761.682007,766.806519 765.857361,765.726685 770.098572,765.297668 
	C771.773682,765.128235 773.595520,766.408325 775.350586,767.028442 
	C774.130310,768.330688 773.144287,770.221130 771.643433,770.818665 
	C767.966614,772.282654 763.988953,772.977051 760.264160,774.341125 
	C758.740662,774.898987 757.557312,776.385864 755.797485,777.785461 
	C752.951721,774.098938 743.781555,778.958252 742.205383,769.655212 
	C744.678772,769.323425 747.058228,769.004272 749.659485,768.655334 
	C751.482178,752.864929 753.300171,737.115723 755.185730,720.780579 
	C752.452209,721.222534 750.199036,722.220886 748.375427,721.703857 
	C746.539795,721.183411 745.131226,719.156372 743.535461,717.789551 
	C744.750244,716.797729 745.823303,715.414124 747.214722,714.911011 
	C749.049927,714.247559 751.134949,714.275330 753.527222,713.930420 
z"/>
<path fill="#AB1A23" opacity="1.000000" stroke="none" 
	d="
M773.440063,365.714661 
	C772.993530,350.355560 773.007690,335.094543 773.033997,319.357361 
	C776.500366,320.671997 779.979797,322.416168 783.401794,324.266571 
	C786.857361,326.135162 790.255981,328.109100 793.880005,330.769531 
	C794.050293,342.873688 794.020081,354.245239 793.989868,365.616760 
	C787.293518,365.682129 780.597168,365.747467 773.440063,365.714661 
z"/>
<path fill="#D91B24" opacity="1.000000" stroke="none" 
	d="
M856.950989,402.115173 
	C856.632202,401.749542 856.114990,401.427399 856.023987,401.011871 
	C854.261536,392.965027 848.452759,392.614105 841.794434,393.081757 
	C836.195129,393.475006 830.544983,393.144531 824.458069,392.574219 
	C823.997986,385.028076 823.997192,378.042145 823.996399,371.056183 
	C835.058777,371.056183 846.121094,371.056183 857.722046,371.056183 
	C858.462036,373.285431 859.272095,375.725708 859.810669,378.858276 
	C859.359375,381.640015 859.237549,383.736450 858.988831,385.817688 
	C858.339172,391.253754 857.633972,396.683136 856.950989,402.115173 
z"/>
<path fill="#C21922" opacity="1.000000" stroke="none" 
	d="
M823.535645,370.965820 
	C823.997192,378.042145 823.997986,385.028076 823.997559,392.478943 
	C812.636963,393.007629 801.277466,393.071442 789.458008,392.576355 
	C788.997437,385.029053 788.997009,378.040619 788.996521,371.052216 
	C800.355957,370.993286 811.715454,370.934357 823.535645,370.965820 
z"/>
<path fill="#E71E27" opacity="1.000000" stroke="none" 
	d="
M842.990967,365.615173 
	C838.300049,365.678680 833.609131,365.742188 828.459106,365.269135 
	C827.999817,351.595123 828.077820,338.456665 827.913147,325.321228 
	C827.889160,323.407837 826.705688,321.508972 826.058838,319.603394 
	C831.108765,316.629761 836.410278,314.672974 842.799011,315.311829 
	C843.183350,315.065430 843.120300,315.052704 843.120300,315.052704 
	C842.943726,315.200806 842.767090,315.348938 842.789917,316.247925 
	C842.989868,333.204224 842.990417,349.409729 842.990967,365.615173 
z"/>
<path fill="#EF2029" opacity="1.000000" stroke="none" 
	d="
M857.002869,402.454285 
	C857.633972,396.683136 858.339172,391.253754 858.988831,385.817688 
	C859.237549,383.736450 859.359375,381.640015 859.834045,379.247406 
	C864.432617,385.539886 868.350464,392.436584 873.178589,398.622803 
	C876.282837,402.600342 881.040955,404.170380 886.506653,403.940002 
	C895.489929,403.561371 896.705750,404.924713 899.821655,415.701904 
	C884.111023,424.888672 868.213257,420.090179 857.002869,402.454285 
z"/>
<path fill="#D41E27" opacity="1.000000" stroke="none" 
	d="
M825.779297,319.752838 
	C826.705688,321.508972 827.889160,323.407837 827.913147,325.321228 
	C828.077820,338.456665 827.999817,351.595123 828.001648,365.176605 
	C822.972046,365.683380 817.940857,365.746155 812.450623,365.268372 
	C811.666931,352.838867 811.342285,340.949951 811.017639,329.061035 
	C815.845032,326.008118 820.672424,322.955200 825.779297,319.752838 
z"/>
<path fill="#AB1A23" opacity="1.000000" stroke="none" 
	d="
M788.536011,370.960388 
	C788.997009,378.040619 788.997437,385.029053 788.997192,392.482605 
	C779.636230,393.012726 770.276001,393.077637 760.456787,392.580109 
	C759.996948,385.029114 759.996094,378.040527 759.995300,371.052002 
	C769.355347,370.990845 778.715393,370.929718 788.536011,370.960388 
z"/>
<path fill="#C21922" opacity="1.000000" stroke="none" 
	d="
M810.625977,329.084045 
	C811.342285,340.949951 811.666931,352.838867 811.992615,365.171448 
	C806.299194,365.678375 800.604736,365.741608 794.450073,365.710815 
	C794.020081,354.245239 794.050293,342.873688 794.120483,331.000641 
	C799.518372,330.035126 804.876282,329.571106 810.625977,329.084045 
z"/>
<path fill="#9B1720" opacity="1.000000" stroke="none" 
	d="
M759.535156,370.961792 
	C759.996094,378.040527 759.996948,385.029114 759.996582,392.482849 
	C751.566895,391.708527 744.972046,394.945129 739.477539,401.148163 
	C738.174805,402.618958 736.391541,403.664246 734.127014,404.887573 
	C732.639343,401.976257 731.854004,399.082642 731.068726,396.189026 
	C734.623840,388.788513 738.452820,381.501068 741.582336,373.924713 
	C742.644958,371.352051 743.727356,370.721008 746.153503,370.799561 
	C750.456909,370.938934 754.767517,370.859497 759.535156,370.961792 
z"/>
<path fill="#F51F28" opacity="1.000000" stroke="none" 
	d="
M843.446533,365.708252 
	C842.990417,349.409729 842.989868,333.204224 842.983093,316.534668 
	C849.965454,318.109558 853.821228,323.989746 854.061401,332.978271 
	C854.292480,341.628021 854.468445,350.279846 854.790222,358.926208 
	C854.869263,361.050140 855.422302,363.156403 855.841492,365.801300 
	C851.776245,365.801300 847.839172,365.801300 843.446533,365.708252 
z"/>
<path fill="#88161F" opacity="1.000000" stroke="none" 
	d="
M730.780884,396.350647 
	C731.854004,399.082642 732.639343,401.976257 733.802795,404.969482 
	C724.154175,412.755096 713.704041,418.970825 700.122375,415.451813 
	C702.677368,404.926086 705.679443,402.607666 715.419373,403.784210 
	C722.128418,404.594635 726.121277,400.278320 730.780884,396.350647 
z"/>
<path fill="#323232" opacity="1.000000" stroke="none" 
	d="
M630.126343,745.258911 
	C628.717957,744.524475 627.309570,743.790100 625.599243,743.046631 
	C628.970703,737.081177 632.644043,731.124817 636.602173,724.980225 
	C638.014160,724.695251 639.157654,724.685120 640.264099,724.477539 
	C641.368408,724.270386 642.435547,723.865234 643.613159,724.082214 
	C639.180298,731.497986 634.653320,738.378479 630.126343,745.258911 
z"/>
<path fill="#A72D35" opacity="1.000000" stroke="none" 
	d="
M843.193481,315.095947 
	C843.038025,310.142090 842.525574,305.135529 842.842285,300.182037 
	C843.020325,297.398254 844.939758,295.298492 848.704102,297.214111 
	C848.956543,298.338989 848.906494,298.875397 848.483582,299.357605 
	C843.241760,300.639252 845.160583,304.995911 844.575195,308.036469 
	C844.377197,309.065277 846.675049,310.574554 848.125244,312.063873 
	C848.677307,312.655090 848.936401,313.046692 849.195496,313.438293 
	C847.354919,313.782959 845.514343,314.127625 843.397034,314.762512 
	C843.120300,315.052704 843.183350,315.065430 843.193481,315.095947 
z"/>
<path fill="#E93C44" opacity="1.000000" stroke="none" 
	d="
M759.045410,315.064026 
	C757.552673,315.065002 756.023926,315.039337 754.227112,314.355438 
	C753.961243,313.154175 753.963379,312.611145 754.370117,311.975708 
	C758.712158,309.010620 758.244812,302.001007 753.953857,299.136597 
	C753.936829,298.085938 753.914246,297.386353 753.891602,296.686737 
	C757.153687,295.231842 758.859680,297.417969 759.039001,299.857910 
	C759.390015,304.636169 758.939087,309.473358 758.922974,314.706238 
	C759.025757,315.126343 759.009338,315.037415 759.045410,315.064026 
z"/>
<path fill="#414141" opacity="1.000000" stroke="none" 
	d="
M897.423462,640.421997 
	C896.625183,639.921692 895.808960,639.377808 895.006897,638.843323 
	C899.246277,634.202148 903.299438,629.622437 907.578979,625.265015 
	C908.097107,624.737366 909.836121,625.408752 911.275574,625.810181 
	C907.071838,630.202942 902.601746,634.310059 897.806152,638.904175 
	C897.322632,639.687622 897.269958,640.001770 897.322693,640.333618 
	C897.322693,640.333618 897.405640,640.378357 897.423462,640.421997 
z"/>
<path fill="#A72D35" opacity="1.000000" stroke="none" 
	d="
M753.531982,296.743225 
	C753.914246,297.386353 753.936829,298.085938 753.559814,299.242554 
	C749.441711,303.865173 749.676941,307.477783 753.965454,312.068115 
	C753.963379,312.611145 753.961243,313.154175 753.923401,314.103699 
	C752.687195,313.404388 751.375000,312.396484 750.305115,311.176178 
	C745.022644,305.150757 745.949890,300.619690 753.531982,296.743225 
z"/>
<path fill="#E93C44" opacity="1.000000" stroke="none" 
	d="
M848.856445,299.411804 
	C848.906494,298.875397 848.956543,298.338989 849.001831,297.398315 
	C856.783325,300.929718 857.023560,305.633484 849.507935,313.278412 
	C848.936401,313.046692 848.677307,312.655090 848.324768,311.762115 
	C852.287354,306.919159 852.445557,303.921021 848.856445,299.411804 
z"/>
<path fill="#A72D35" opacity="1.000000" stroke="none" 
	d="
M911.958191,494.157074 
	C910.168640,493.495941 907.954102,493.280029 906.687561,492.070953 
	C904.709778,490.182953 901.135681,487.866058 903.963257,484.813080 
	C905.097839,483.588135 908.752014,484.696869 911.595093,485.153046 
	C911.917419,485.743500 911.903992,485.924408 911.463379,486.077820 
	C909.298401,486.050293 907.560669,486.050293 905.380859,486.050293 
	C906.269348,490.378815 908.668884,491.510956 911.944092,491.846771 
	C911.945007,492.837097 911.951599,493.497101 911.958191,494.157074 
z"/>
<path fill="#E93C44" opacity="1.000000" stroke="none" 
	d="
M912.852661,415.630768 
	C915.358093,414.562561 917.913818,413.344666 919.198120,417.188263 
	C920.545532,421.221161 918.591187,424.262787 913.310913,425.455139 
	C912.937500,424.630493 912.922668,424.197754 913.183899,423.547791 
	C914.660461,421.631378 915.860962,419.932159 917.061462,418.232941 
	C915.785339,418.015259 914.509216,417.797546 913.145752,417.091034 
	C912.989868,416.278442 912.921265,415.954620 912.852661,415.630768 
z"/>
<path fill="#A72D35" opacity="1.000000" stroke="none" 
	d="
M688.965515,424.616211 
	C687.097290,424.234894 684.136902,424.420868 683.584106,423.356384 
	C682.364502,421.008392 682.358398,418.030151 681.857178,415.309052 
	C684.009583,415.167328 686.162048,415.025574 688.430664,415.285034 
	C688.164856,415.965790 687.782837,416.245392 687.061401,416.466248 
	C685.703308,416.642914 684.099304,416.592316 683.810181,417.184113 
	C683.426514,417.969330 683.703003,419.669067 684.347656,420.240814 
	C685.663086,421.407410 687.414307,422.082642 688.997925,423.236359 
	C688.995056,423.880371 688.980286,424.248260 688.965515,424.616211 
z"/>
<path fill="#A72D35" opacity="1.000000" stroke="none" 
	d="
M691.221436,494.444580 
	C687.287048,495.139160 683.200317,493.006439 683.103210,489.757294 
	C682.962769,485.062134 687.071777,485.392090 690.523560,484.917053 
	C690.964844,485.527161 690.976074,485.786316 690.663696,486.215057 
	C688.658081,487.211823 686.976074,488.038971 685.294128,488.866119 
	C685.257263,489.351624 685.220459,489.837128 685.183594,490.322662 
	C686.795288,490.956268 688.407043,491.589874 690.186951,492.491180 
	C690.643921,493.320770 690.932678,493.882690 691.221436,494.444580 
z"/>
<path fill="#484848" opacity="1.000000" stroke="none" 
	d="
M869.287659,665.833862 
	C868.834534,665.164917 868.712524,664.423340 868.296753,663.339478 
	C868.003113,662.997131 867.763062,662.751648 867.763062,662.751648 
	C870.788635,660.576355 872.403870,656.095825 877.679565,656.990723 
	C875.263855,659.952209 872.441284,662.856689 869.287659,665.833862 
z"/>
<path fill="#E93C44" opacity="1.000000" stroke="none" 
	d="
M691.567017,494.371643 
	C690.932678,493.882690 690.643921,493.320770 690.534973,492.369629 
	C692.148682,490.566162 693.582642,489.151978 695.016541,487.737793 
	C693.673462,487.173676 692.330322,486.609558 690.987244,486.045441 
	C690.976074,485.786316 690.964844,485.527161 690.923462,484.880127 
	C693.007507,484.874573 695.121643,485.256989 697.235840,485.639374 
	C696.479065,487.739624 695.925171,489.948395 694.883240,491.896118 
	C694.329834,492.930664 692.930298,493.512512 691.567017,494.371643 
z"/>
<path fill="#E93C44" opacity="1.000000" stroke="none" 
	d="
M912.329102,494.159760 
	C911.951599,493.497101 911.945007,492.837097 912.315063,491.757202 
	C918.100769,488.724121 913.653259,487.620270 911.890564,486.105316 
	C911.903992,485.924408 911.917419,485.743500 911.925964,485.290771 
	C913.875366,485.965393 915.829590,486.911926 917.783813,487.858429 
	C916.089172,489.959747 914.394592,492.061096 912.329102,494.159760 
z"/>
<path fill="#A72D35" opacity="1.000000" stroke="none" 
	d="
M912.503418,415.721985 
	C912.921265,415.954620 912.989868,416.278442 912.851257,417.249268 
	C911.112549,419.134186 909.581055,420.372101 908.049561,421.609985 
	C909.669006,422.328308 911.288391,423.046661 912.907837,423.764984 
	C912.922668,424.197754 912.937500,424.630493 912.947571,425.388245 
	C911.642334,425.509094 910.174438,425.614563 909.082764,425.024231 
	C907.642090,424.245239 905.965942,423.126038 905.432922,421.749603 
	C905.136475,420.983948 906.770569,419.179932 907.872803,418.241150 
	C909.099426,417.196381 910.710449,416.603058 912.503418,415.721985 
z"/>
<path fill="#E93C44" opacity="1.000000" stroke="none" 
	d="
M689.333984,424.637512 
	C688.980286,424.248260 688.995056,423.880371 689.329712,423.137238 
	C690.784363,422.171021 691.919128,421.580017 694.091431,420.448669 
	C691.141357,418.718628 689.271057,417.621826 687.400818,416.525024 
	C687.782837,416.245392 688.164856,415.965790 688.751831,415.395325 
	C689.694519,415.423279 690.588440,415.575623 691.140320,416.092804 
	C692.676025,417.531982 694.069763,419.122650 695.519531,420.653503 
	C693.580505,421.988586 691.641479,423.323700 689.333984,424.637512 
z"/>
<path fill="#2E2E2E" opacity="1.000000" stroke="none" 
	d="
M914.923279,617.539490 
	C914.923279,617.539490 914.906067,617.455872 914.952576,617.074097 
	C914.996765,616.464294 914.994446,616.236267 914.992126,616.008301 
	C916.527283,614.481201 919.885925,614.877502 919.704895,611.540222 
	C920.417847,611.628784 921.130798,611.717407 922.018433,612.123657 
	C922.193176,612.441223 922.333130,612.752441 922.052551,612.938843 
	C921.682312,613.191406 921.509949,613.269470 921.517395,613.321777 
	C921.547424,613.531616 921.633240,613.733582 921.698425,613.938477 
	C920.211182,615.712769 918.723938,617.487061 916.717834,619.085938 
	C915.773682,618.453491 915.348450,617.996521 914.923279,617.539490 
z"/>
<path fill="#484848" opacity="1.000000" stroke="none" 
	d="
M974.235718,641.906494 
	C973.135071,638.025696 974.770447,635.592468 978.168457,636.231750 
	C977.181946,638.193909 975.878174,640.015991 974.235718,641.906494 
z"/>
<path fill="#414141" opacity="1.000000" stroke="none" 
	d="
M914.567139,617.709473 
	C915.348450,617.996521 915.773682,618.453491 916.469727,619.295532 
	C916.740540,619.680542 916.703735,619.664246 916.313599,619.638428 
	C915.640442,620.271118 915.357361,620.929626 915.074280,621.588074 
	C914.415588,622.425537 913.756958,623.262939 912.946899,624.259766 
	C909.838257,621.497009 912.545288,619.800964 914.567139,617.709473 
z"/>
<path fill="#484848" opacity="1.000000" stroke="none" 
	d="
M978.933228,633.700623 
	C978.253723,633.571045 977.585632,633.117920 977.340332,632.238281 
	C977.845764,630.852966 977.928345,629.894043 978.010925,628.935181 
	C978.189514,628.641785 978.368042,628.348450 978.816895,628.035278 
	C979.039612,629.802612 978.992065,631.589783 978.933228,633.700623 
z"/>
<path fill="#484848" opacity="1.000000" stroke="none" 
	d="
M979.384277,627.033936 
	C978.908691,626.546082 978.720276,626.067810 978.531860,625.589478 
	C978.952759,625.608704 979.373596,625.627869 979.918945,625.899109 
	C979.919434,626.448608 979.795471,626.746033 979.384277,627.033936 
z"/>
<path fill="#484848" opacity="1.000000" stroke="none" 
	d="
M981.333008,634.821106 
	C981.416382,634.669312 981.504272,634.646912 981.592224,634.624573 
	C981.507385,634.733215 981.422546,634.841858 981.333008,634.821106 
z"/>
<path fill="#2E2E2E" opacity="1.000000" stroke="none" 
	d="
M915.334595,621.398682 
	C915.357361,620.929626 915.640442,620.271118 916.305542,619.620483 
	C916.323364,620.155212 915.959167,620.682251 915.334595,621.398682 
z"/>
<path fill="#1B1B1B" opacity="1.000000" stroke="none" 
	d="
M821.531372,641.326355 
	C821.582397,641.409058 821.388062,641.457336 821.388062,641.457336 
	C821.388062,641.457336 821.480347,641.243652 821.531372,641.326355 
z"/>
<path fill="#1C1C1C" opacity="1.000000" stroke="none" 
	d="
M897.584229,640.237610 
	C897.269958,640.001770 897.322632,639.687622 897.656128,639.224731 
	C897.836304,639.419373 897.841003,639.780457 897.584229,640.237610 
z"/>
<path fill="#484848" opacity="1.000000" stroke="none" 
	d="
M980.516235,637.499451 
	C980.465698,637.534119 980.566711,637.464783 980.516235,637.499451 
z"/>
<path fill="#1C1C1C" opacity="1.000000" stroke="none" 
	d="
M921.902649,613.742188 
	C921.633240,613.733582 921.547424,613.531616 921.517395,613.321777 
	C921.509949,613.269470 921.682312,613.191406 921.925415,613.052612 
	C922.088135,613.168640 922.097534,613.357239 921.902649,613.742188 
z"/>
<path fill="#F6FAFB" opacity="1.000000" stroke="none" 
	d="
M702.852783,617.926697 
	C704.319397,613.806030 705.786133,609.685364 707.811157,605.032349 
	C708.373535,603.658997 708.377502,602.818115 708.381470,601.977234 
	C708.150085,601.802979 708.066772,601.574829 708.518066,601.073608 
	C708.986328,600.241516 709.068176,599.628418 709.150024,599.015320 
	C710.738220,594.370544 711.753357,589.397522 714.148743,585.214966 
	C715.406921,583.018005 719.081604,582.205017 722.355225,580.888916 
	C725.358032,582.260376 726.671753,581.572510 726.999634,578.972290 
	C736.589539,578.272522 745.797852,576.097412 754.976929,572.000366 
	C755.440308,602.252808 749.193726,631.925476 745.829163,661.563965 
	C744.331970,660.085327 743.009705,657.693420 741.305847,657.380737 
	C739.324463,657.017090 737.029846,658.555847 734.834656,659.129150 
	C723.456970,662.100769 712.171936,665.590088 700.637939,667.732178 
	C694.902893,668.797241 692.833557,665.931946 693.085938,660.004700 
	C693.276062,655.541321 694.062622,651.103271 695.061523,646.285950 
	C695.863953,645.632507 696.188538,645.347107 696.513123,645.061646 
	C696.086914,644.706482 695.660767,644.351379 695.234558,643.996216 
	C695.219543,635.106628 703.534485,636.956116 708.778625,634.093933 
	C710.624817,633.524170 711.814148,632.860413 713.003479,632.196594 
	C713.170654,632.146362 713.337891,632.096069 713.897949,632.332703 
	C715.195923,632.180054 716.101135,631.740540 717.006348,631.301147 
	C722.327881,629.782288 727.649353,628.263428 733.628174,626.818848 
	C734.859863,626.388367 735.434204,625.883606 736.008606,625.378906 
	C739.739197,624.074524 743.602966,623.041504 747.125305,621.312866 
	C748.294678,620.738953 748.586670,618.377441 749.362183,616.649658 
	C742.202087,612.977478 735.477966,615.208496 728.835510,616.579102 
	C720.645508,618.268921 712.517822,620.260437 703.586487,622.100586 
	C702.279907,622.051575 701.749939,622.023499 701.220032,621.995483 
	C701.308960,621.432922 701.397949,620.870422 702.025330,620.112183 
	C702.660095,619.253174 702.756470,618.589966 702.852783,617.926697 
z"/>
<path fill="#F4F7F8" opacity="1.000000" stroke="none" 
	d="
M726.614014,578.974609 
	C726.671753,581.572510 725.358032,582.260376 722.704590,580.868286 
	C723.651917,580.142822 724.940186,579.559875 726.614014,578.974609 
z"/>
<path fill="#F4F7F8" opacity="1.000000" stroke="none" 
	d="
M712.667969,632.139771 
	C711.814148,632.860413 710.624817,633.524170 709.138184,634.056274 
	C710.004761,633.310730 711.168579,632.696838 712.667969,632.139771 
z"/>
<path fill="#F4F7F8" opacity="1.000000" stroke="none" 
	d="
M716.679565,631.226562 
	C716.101135,631.740540 715.195923,632.180054 714.154541,632.384644 
	C714.796570,631.817139 715.574707,631.484558 716.679565,631.226562 
z"/>
<path fill="#F4F7F8" opacity="1.000000" stroke="none" 
	d="
M695.126709,644.321289 
	C695.660767,644.351379 696.086914,644.706482 696.513123,645.061646 
	C696.188538,645.347107 695.863953,645.632507 695.261475,645.958862 
	C694.995422,645.548645 695.007141,645.097534 695.126709,644.321289 
z"/>
<path fill="#F4F7F8" opacity="1.000000" stroke="none" 
	d="
M735.691284,625.330933 
	C735.434204,625.883606 734.859863,626.388367 733.969360,626.884338 
	C734.226807,626.344727 734.800354,625.813782 735.691284,625.330933 
z"/>
<path fill="#F4F7F8" opacity="1.000000" stroke="none" 
	d="
M702.582214,618.066772 
	C702.756470,618.589966 702.660095,619.253174 702.272095,619.954834 
	C702.090759,619.397827 702.201172,618.802307 702.582214,618.066772 
z"/>
<path fill="#F4F7F8" opacity="1.000000" stroke="none" 
	d="
M708.107178,602.126099 
	C708.377502,602.818115 708.373535,603.658997 708.057007,604.803467 
	C707.773926,604.163025 707.803406,603.218994 708.107178,602.126099 
z"/>
<path fill="#F4F7F8" opacity="1.000000" stroke="none" 
	d="
M708.915894,599.302979 
	C709.068176,599.628418 708.986328,600.241516 708.611511,600.908997 
	C708.439575,600.505798 708.560669,600.048157 708.915894,599.302979 
z"/>
<path fill="#F4F7F8" opacity="1.000000" stroke="none" 
	d="
M701.209595,622.335205 
	C701.749939,622.023499 702.279907,622.051575 703.206543,622.125244 
	C702.801941,622.338928 702.000488,622.506897 701.209595,622.335205 
z"/>
<path fill="#F4F8F9" opacity="1.000000" stroke="none" 
	d="
M935.211304,618.690857 
	C936.056702,614.179932 936.499756,609.546326 937.829407,605.182983 
	C940.800232,595.434448 944.054321,585.707275 951.544312,578.281494 
	C952.342773,577.489929 954.580383,577.638245 955.936096,578.052246 
	C957.576172,578.552979 958.988098,579.801208 960.508240,580.731750 
	C963.121033,576.134827 971.936951,576.644287 975.380859,581.219788 
	C980.123779,587.521118 979.596069,594.688171 978.460266,601.794678 
	C975.839661,618.190186 968.541016,632.851318 960.521240,647.082214 
	C956.773499,653.732483 951.674194,659.631348 947.055115,665.771179 
	C946.199402,666.908691 944.806641,667.761414 943.497192,668.416870 
	C938.837280,670.749146 937.142212,670.299744 935.864746,665.299316 
	C934.513428,660.009583 934.238770,654.455078 933.186279,649.076355 
	C931.674561,641.351135 933.097473,633.899597 934.555542,626.370605 
	C935.007324,624.037720 934.445618,621.508545 934.800781,618.843140 
	C935.253601,618.617065 935.211304,618.690857 935.211304,618.690857 
z"/>
<path fill="#F4F8F9" opacity="1.000000" stroke="none" 
	d="
M891.072632,630.044800 
	C879.415894,640.542969 867.989014,650.761719 856.562134,660.980530 
	C856.130859,660.757935 855.699585,660.535400 855.268311,660.312805 
	C856.235657,655.031860 857.166626,649.743896 858.177002,644.471191 
	C861.423462,627.529663 864.681580,610.590210 867.979492,593.658630 
	C868.581116,590.570007 868.969543,587.328369 870.256409,584.524597 
	C871.094421,582.698853 873.160889,580.721558 875.053162,580.213806 
	C885.689575,577.359741 896.533081,575.632385 907.479370,578.193481 
	C911.128174,579.047180 914.677307,580.725586 917.980042,582.554382 
	C921.732178,584.632019 921.582397,588.641296 920.468933,591.885376 
	C919.154541,595.714905 917.206055,599.565918 914.650879,602.685547 
	C907.101196,611.903076 899.116821,620.764526 891.072632,630.044800 
z"/>
<path fill="#F6FAFB" opacity="1.000000" stroke="none" 
	d="
M886.753418,650.321350 
	C885.896790,649.802368 885.237671,649.036621 884.816345,648.156921 
	C884.721252,647.958557 885.702393,646.968689 885.769592,647.010803 
	C886.567810,647.511108 887.286560,648.138000 887.823853,649.103333 
	C887.426636,649.661072 887.231812,649.847168 886.753418,650.321350 
z"/>
<path fill="#484848" opacity="1.000000" stroke="none" 
	d="
M868.125854,663.117126 
	C867.758972,663.697021 867.269287,664.156921 866.779663,664.616821 
	C866.938782,664.079712 867.097839,663.542664 867.510010,662.878601 
	C867.763062,662.751648 868.003113,662.997131 868.125854,663.117126 
z"/>
<path fill="#F6FAFB" opacity="1.000000" stroke="none" 
	d="
M977.679626,629.067627 
	C977.928345,629.894043 977.845764,630.852966 977.383545,631.902039 
	C977.118652,631.061523 977.233459,630.130859 977.679626,629.067627 
z"/>
<path fill="#F4F8F9" opacity="1.000000" stroke="none" 
	d="
M935.269165,618.577515 
	C935.080872,618.714783 934.889038,618.910889 934.663147,619.052673 
	C934.616638,619.081787 934.442993,618.908142 934.328003,618.827942 
	C934.495483,618.655457 934.662903,618.482910 935.020874,618.500610 
	C935.211304,618.690857 935.253601,618.617065 935.269165,618.577515 
z"/>
<path fill="#414141" opacity="1.000000" stroke="none" 
	d="
M914.812866,616.124634 
	C914.994446,616.236267 914.996765,616.464294 914.973877,617.037048 
	C914.843689,617.001526 914.738647,616.621277 914.812866,616.124634 
z"/>
<path fill="#F6FAFB" opacity="1.000000" stroke="none" 
	d="
M957.153076,745.307434 
	C956.875732,745.408020 956.246582,745.229858 955.832031,744.797241 
	C956.298096,744.704773 956.549683,744.866760 957.153076,745.307434 
z"/>
<path fill="#F4F7F8" opacity="1.000000" stroke="none" 
	d="
M874.445923,718.195801 
	C882.241882,718.792114 884.315979,721.153137 884.184021,728.613403 
	C883.973511,740.514099 878.566101,750.672913 873.062866,760.681152 
	C870.548828,765.253174 867.245178,769.550354 863.600769,773.291504 
	C860.612183,776.359436 858.225586,775.510803 857.374329,771.327454 
	C856.463989,766.853821 856.029968,762.198425 856.083130,757.630432 
	C856.209534,746.770691 857.376953,736.012451 862.353394,726.120911 
	C863.882629,723.081299 866.093079,720.384338 867.991577,717.530457 
	C868.228577,717.997742 868.465576,718.465027 868.702576,718.932312 
	C870.493835,718.727783 872.285034,718.523254 874.445923,718.195801 
z"/>
<path fill="#F4F7F8" opacity="1.000000" stroke="none" 
	d="
M630.056274,745.599426 
	C634.653320,738.378479 639.180298,731.497986 643.854492,724.313110 
	C645.189087,722.930054 646.376343,721.851440 648.360046,720.049316 
	C645.754883,731.009888 643.323486,741.239258 640.745483,752.085571 
	C636.411682,752.085571 631.923157,752.085571 627.084656,752.085571 
	C627.969604,750.211304 628.977905,748.075623 630.056274,745.599426 
z"/>
<path fill="#323232" opacity="1.000000" stroke="none" 
	d="
M624.914062,750.931458 
	C625.068970,750.506775 625.223877,750.082092 625.378784,749.657410 
	C625.401245,750.031677 625.423645,750.405884 625.215698,750.886719 
	C624.985413,750.993347 624.914124,750.931458 624.914062,750.931458 
z"/>
<path fill="#323232" opacity="1.000000" stroke="none" 
	d="
M625.017578,751.027832 
	C624.928955,751.065369 624.808105,751.068359 624.800659,751.001404 
	C624.914124,750.931458 624.985413,750.993347 625.017578,751.027832 
z"/>
<path fill="#F4F7F8" opacity="1.000000" stroke="none" 
	d="
M848.483521,299.357605 
	C852.445557,303.921021 852.287354,306.919159 848.031738,311.562469 
	C846.675049,310.574554 844.377197,309.065277 844.575195,308.036469 
	C845.160583,304.995911 843.241760,300.639252 848.483521,299.357605 
z"/>
<path fill="#F4F7F8" opacity="1.000000" stroke="none" 
	d="
M754.370117,311.975708 
	C749.676941,307.477783 749.441711,303.865173 753.554199,299.593597 
	C758.244812,302.001007 758.712158,309.010620 754.370117,311.975708 
z"/>
<path fill="#F4F7F8" opacity="1.000000" stroke="none" 
	d="
M911.463379,486.077820 
	C913.653259,487.620270 918.100769,488.724121 912.320679,491.426849 
	C908.668884,491.510956 906.269348,490.378815 905.380859,486.050293 
	C907.560669,486.050293 909.298401,486.050293 911.463379,486.077820 
z"/>
<path fill="#F4F7F8" opacity="1.000000" stroke="none" 
	d="
M913.183899,423.547791 
	C911.288391,423.046661 909.669006,422.328308 908.049561,421.609985 
	C909.581055,420.372101 911.112549,419.134186 912.938599,417.738037 
	C914.509216,417.797546 915.785339,418.015259 917.061462,418.232941 
	C915.860962,419.932159 914.660461,421.631378 913.183899,423.547791 
z"/>
<path fill="#F4F7F8" opacity="1.000000" stroke="none" 
	d="
M687.061401,416.466278 
	C689.271057,417.621826 691.141357,418.718628 694.091431,420.448669 
	C691.919128,421.580017 690.784363,422.171021 689.317749,422.861145 
	C687.414307,422.082642 685.663086,421.407410 684.347656,420.240814 
	C683.703003,419.669067 683.426514,417.969330 683.810181,417.184113 
	C684.099304,416.592316 685.703308,416.642914 687.061401,416.466278 
z"/>
<path fill="#F4F7F8" opacity="1.000000" stroke="none" 
	d="
M690.663696,486.215057 
	C692.330322,486.609558 693.673462,487.173676 695.016541,487.737793 
	C693.582642,489.151978 692.148682,490.566162 690.366760,492.101929 
	C688.407043,491.589874 686.795288,490.956268 685.183594,490.322662 
	C685.220459,489.837128 685.257263,489.351624 685.294128,488.866119 
	C686.976074,488.038971 688.658081,487.211823 690.663696,486.215057 
z"/>
</svg>