<svg version="1.1" id="Layer_1" xmlns="http://www.w3.org/2000/svg" xmlns:xlink="http://www.w3.org/1999/xlink" x="0px" y="0px"
	 width="100%" viewBox="0 0 1024 1024" enable-background="new 0 0 1024 1024" xml:space="preserve">
<path fill="#000000" opacity="1.000000" stroke="none" 
	d="
M1.000000,437.463196 
	C9.969994,415.281555 25.120403,397.184296 36.321602,376.762726 
	C42.397594,365.685242 45.609524,353.981262 45.789631,341.448334 
	C45.952435,330.119781 45.799339,318.786530 45.768040,307.455383 
	C45.731617,294.271637 49.180256,282.940308 59.744343,273.739624 
	C71.436943,263.556030 83.521912,253.875702 95.512932,244.083328 
	C110.791313,231.606369 120.645096,215.914261 125.860916,197.035095 
	C127.764557,190.144653 130.589294,183.493317 132.254593,176.555466 
	C136.335938,159.551895 147.439117,149.767044 163.213943,143.532837 
	C177.607285,137.844589 192.288391,132.889923 206.383255,126.389885 
	C222.038071,119.170479 234.043793,108.114464 243.387665,93.851372 
	C249.506760,84.510803 255.902573,75.390503 263.508820,67.140816 
	C268.541504,61.682430 274.335510,57.987175 281.737671,56.824642 
	C292.925995,55.067471 304.150055,53.975613 315.489410,53.693718 
	C328.792419,53.363007 342.028687,52.315121 355.048523,49.094296 
	C365.473541,46.515366 374.465851,41.336304 383.040955,35.186031 
	C393.183014,27.911926 402.712006,19.819782 413.541626,13.453909 
	C421.797516,8.600923 430.314148,7.824836 439.467194,9.325373 
	C455.774292,11.998736 471.447937,17.195454 487.355652,21.390947 
	C506.327423,26.394550 524.509644,24.935568 542.647705,18.091921 
	C553.378296,14.043180 564.220947,10.361047 575.543091,8.034563 
	C582.286255,6.648971 588.255615,7.149656 594.387146,10.104968 
	C608.406982,16.862274 621.074890,25.801750 634.102478,34.170837 
	C645.623291,41.571941 657.338440,48.573685 671.079529,51.147415 
	C678.803223,52.594055 686.606445,52.667023 694.437195,52.774254 
	C705.909912,52.931347 717.377625,52.100830 728.869080,53.437443 
	C737.145630,54.400108 743.559021,58.055611 749.308289,63.754208 
	C758.214783,72.582085 765.750488,82.552383 773.684082,92.197433 
	C777.493347,96.828377 781.459595,101.330040 785.275208,105.955841 
	C796.752441,119.869888 811.898804,127.740143 828.880188,132.688538 
	C838.937805,135.619324 848.949402,138.612564 858.721985,142.530838 
	C868.567383,146.478317 874.500305,153.505310 878.904480,162.729248 
	C885.522278,176.589584 890.430115,191.112808 896.013733,205.367020 
	C903.564209,224.642273 915.648926,239.926086 933.214600,251.002060 
	C940.671204,255.703781 947.567810,261.262512 954.667358,266.505829 
	C965.594421,274.575806 969.088257,285.676758 970.417786,298.419769 
	C972.178406,315.294708 971.944702,332.284943 974.071228,349.139893 
	C975.955322,364.073151 981.385498,377.384216 990.252991,389.405182 
	C995.889465,397.046021 1001.548157,404.670715 1007.236084,412.273285 
	C1015.872498,423.816742 1019.306702,436.183228 1015.637573,450.710724 
	C1012.255310,464.102386 1008.708801,477.451263 1004.966980,490.732269 
	C999.034851,511.787048 1000.602417,532.169556 1008.547180,552.343140 
	C1011.959229,561.007263 1014.604980,569.914246 1016.925598,578.965576 
	C1019.453674,588.826233 1017.861389,597.558350 1013.012817,606.284485 
	C1005.800232,619.265198 997.608032,631.620544 989.491272,644.013916 
	C977.997375,661.563904 972.277527,680.475342 973.157166,701.588318 
	C973.612854,712.525879 973.696899,723.511414 972.604980,734.518555 
	C971.688110,743.761597 967.784241,750.832764 961.317993,757.078125 
	C951.349915,766.705750 940.741028,775.604797 929.631775,783.806519 
	C909.402039,798.741699 896.870178,818.393738 891.192383,842.726196 
	C890.023560,847.735107 887.868530,852.508118 886.584717,857.497131 
	C882.329529,874.031921 871.229126,883.680420 855.712830,889.369507 
	C843.371277,893.894592 831.260925,899.046143 818.968567,903.710449 
	C800.040649,910.892700 785.631714,923.386292 774.657776,940.244995 
	C768.939880,949.029297 762.931458,957.616638 755.728027,965.343201 
	C750.175903,971.298523 743.842285,975.029297 735.698364,976.417664 
	C720.865234,978.946350 705.886475,979.566650 690.950134,979.925537 
	C667.353455,980.492432 646.670776,987.813049 628.605957,1003.081665 
	C618.289062,1011.801514 607.170410,1019.460632 594.243713,1024.759766 
	C592.611084,1025.000000 591.222229,1025.000000 589.068787,1024.812744 
	C569.669067,1022.611633 551.968201,1016.553650 533.899719,1012.080933 
	C522.404297,1009.235291 510.858429,1007.025208 498.895630,1008.953918 
	C480.223511,1011.964600 463.222137,1020.519592 445.000000,1025.000000 
	C439.977905,1025.000000 434.955811,1025.000000 429.228394,1024.753418 
	C413.661072,1017.943848 400.126617,1009.081543 386.908051,999.805481 
	C367.303986,986.048279 346.096191,978.394775 321.823669,980.151672 
	C314.033844,980.715515 306.169495,980.233337 298.339355,980.261047 
	C285.673157,980.305786 275.323303,975.922852 266.712555,966.150574 
	C256.124695,954.134460 246.381500,941.452820 236.064331,929.232483 
	C225.832596,917.113281 213.690948,907.879089 198.466187,902.989502 
	C188.170700,899.682922 177.864578,896.409180 167.575272,893.083496 
	C155.233597,889.094482 145.355377,882.591003 139.979919,869.855042 
	C135.055161,858.187073 130.121231,846.513245 126.011292,834.567932 
	C117.824638,810.773865 103.687813,792.059082 82.020264,778.970337 
	C74.338112,774.329712 67.304405,768.672729 60.601208,762.607239 
	C54.376728,756.974792 51.025932,750.228027 49.597473,741.994202 
	C46.937958,726.664429 46.660709,711.171875 46.056618,695.731567 
	C45.241928,674.908447 39.319935,656.236328 26.262503,639.784912 
	C19.647852,631.450928 13.206547,622.968506 7.601730,613.834717 
	C1.902294,604.546814 1.082670,595.057678 3.120296,584.639526 
	C5.809624,570.889282 9.661267,557.457520 13.212743,543.938660 
	C16.398918,531.810242 19.297407,519.483643 17.390209,506.977966 
	C14.395123,487.338898 5.386959,469.312073 1.000000,450.000000 
	C1.000000,445.975464 1.000000,441.950897 1.000000,437.463196 
M298.949249,931.449951 
	C307.645477,937.374817 315.635132,944.138794 323.290161,951.359802 
	C332.495728,960.043518 341.684448,968.787903 352.308960,975.792786 
	C355.218048,977.710876 358.146362,979.612000 361.853668,979.811584 
	C371.714905,980.342590 381.449097,979.489807 391.149292,977.698914 
	C402.099091,975.677246 413.072845,974.045898 424.303772,974.342102 
	C438.035767,974.704163 450.190704,980.067505 462.376617,985.464172 
	C475.610504,991.324951 488.456024,998.102234 502.529266,1001.945618 
	C506.829559,1003.119995 510.925293,1003.226990 515.261658,1002.015564 
	C527.270020,998.660828 537.909851,992.394775 548.824829,986.695312 
	C557.108215,982.369873 565.550293,978.332397 574.851746,976.841736 
	C589.993896,974.415161 605.059814,976.406311 620.130981,978.071899 
	C629.557983,979.113770 639.016785,980.018127 648.485962,980.481873 
	C656.342224,980.866699 663.414124,978.456055 669.713501,973.391724 
	C677.546936,967.094055 684.527466,959.954285 691.271912,952.589783 
	C705.038818,937.557129 721.805054,928.256714 741.868896,924.547546 
	C753.969177,922.310669 765.900574,919.164001 777.995544,916.893250 
	C792.248047,914.217529 801.926697,906.106201 808.085083,893.275940 
	C810.463257,888.321350 813.250183,883.550781 815.422180,878.511536 
	C824.178772,858.194763 838.034180,842.693054 857.576172,832.096069 
	C870.157959,825.273254 882.710815,818.355652 894.489563,810.131226 
	C900.862854,805.681152 905.520752,800.284668 907.522400,792.575562 
	C909.867676,783.542664 911.590576,774.411804 912.670837,765.165222 
	C914.965393,745.524780 920.974670,727.597656 934.977234,712.878967 
	C943.811951,703.592224 952.145996,693.825806 960.618347,684.198669 
	C968.938599,674.744324 975.917908,664.730591 973.650757,651.063721 
	C972.699280,645.327881 972.420837,639.437988 971.001038,633.829590 
	C964.355408,607.577515 967.885132,582.800171 980.353516,558.879883 
	C985.496826,549.012451 989.848755,538.710938 993.641541,528.181213 
	C996.676758,519.754639 996.588074,511.804840 993.317017,503.463959 
	C989.525391,493.795776 984.431519,484.821716 979.586060,475.717529 
	C972.148987,461.743958 967.906921,446.985260 969.002625,431.149353 
	C969.965759,417.231628 971.508545,403.333069 973.374390,389.504181 
	C975.528076,373.542236 972.854858,359.422913 960.405151,348.107666 
	C955.354187,343.516968 950.796326,338.385284 945.766052,333.770142 
	C931.711487,320.875275 922.442993,305.399628 918.570740,286.555542 
	C915.362061,270.940369 912.578247,255.217972 907.793274,239.938965 
	C905.385742,232.251404 901.130798,226.462921 894.387329,222.056198 
	C886.959534,217.202301 879.208618,213.007477 871.132141,209.442276 
	C851.583313,200.812805 836.453247,187.579086 826.004639,168.715317 
	C818.751343,155.620300 811.776855,142.327927 803.024536,130.080185 
	C798.224915,123.363686 792.140320,119.257317 784.168518,117.194977 
	C775.602966,114.979042 766.959656,113.256714 758.201721,112.412193 
	C736.886292,110.356781 718.471558,102.428818 702.800354,87.582863 
	C692.415833,77.745209 682.063538,67.813728 670.593201,59.152119 
	C664.126770,54.269112 657.429321,51.246078 648.999756,51.795841 
	C641.004028,52.317314 633.084229,53.070042 625.214661,54.515591 
	C614.905823,56.409191 604.561951,57.997547 594.027832,57.650764 
	C582.127747,57.259018 571.263733,53.054985 560.515625,48.465931 
	C546.129761,42.323654 532.285828,34.899792 517.213135,30.379128 
	C511.744659,28.739019 506.447662,28.829817 501.022644,30.539824 
	C490.295624,33.921017 480.513336,39.300133 470.772217,44.728558 
	C454.122925,54.006699 436.578186,57.677299 417.448669,55.758175 
	C401.889618,54.197254 386.378662,51.841404 370.694153,51.534534 
	C363.003510,51.384068 355.992188,52.784569 349.730469,57.806904 
	C341.244110,64.613556 333.633087,72.283691 326.213898,80.168159 
	C314.152985,92.985451 299.988770,102.174690 282.604095,105.929901 
	C271.056000,108.424355 259.566010,111.280586 247.925705,113.234390 
	C229.420166,116.340530 215.361313,124.706612 207.989639,142.878830 
	C204.684204,151.027222 200.266541,158.748795 196.041397,166.493744 
	C190.455627,176.732819 182.845734,185.205261 173.176102,191.863480 
	C160.251953,200.762604 146.293976,207.895721 132.786972,215.793488 
	C120.516945,222.967987 110.596474,231.704010 108.830330,246.891388 
	C108.485085,249.860214 107.760292,252.783035 107.279549,255.738297 
	C105.331360,267.714508 104.496658,279.904724 100.502159,291.488251 
	C95.186928,306.901764 84.344925,318.492706 73.654022,330.187073 
	C65.453842,339.156891 56.983944,347.885773 50.066910,357.964203 
	C46.753437,362.792114 44.951374,367.775208 45.075802,373.782379 
	C45.252319,382.304047 45.692963,390.790863 47.721420,399.036743 
	C53.974152,424.454865 50.831894,448.486572 38.570080,471.623138 
	C33.198689,481.758331 29.097406,492.538818 24.995329,503.288513 
	C21.798271,511.666595 21.560196,519.653992 25.065290,527.984436 
	C27.911880,534.749756 30.544777,541.627563 34.412693,547.856689 
	C47.233551,568.504150 51.931713,590.638977 48.461082,614.806091 
	C46.240471,630.269043 44.288872,645.835632 45.201950,661.576294 
	C45.383343,664.703369 46.243568,667.368835 47.749153,670.028503 
	C54.026253,681.117371 63.494106,689.418274 72.623970,697.875366 
	C87.207314,711.384033 96.130402,727.710938 100.412132,747.035339 
	C103.650444,761.650635 105.767914,776.505554 110.108688,790.898071 
	C112.639465,799.289185 117.195312,805.688477 124.628654,810.343750 
	C132.272827,815.131042 140.132706,819.527161 148.369308,823.109131 
	C167.399506,831.384827 181.877121,844.407471 192.032883,862.541504 
	C199.353271,875.612732 206.271271,888.949585 215.020706,901.175659 
	C218.320526,905.786560 221.670593,910.402405 227.340088,912.449097 
	C236.132812,915.623352 245.193665,917.583069 254.465179,918.764099 
	C269.680145,920.702087 284.945892,922.562622 298.949249,931.449951 
z"/>
<path fill="#000000" opacity="1.000000" stroke="none" 
	d="
M877.903687,711.997314 
	C877.891724,716.995972 877.886536,721.495178 877.869812,725.994446 
	C877.849548,731.455872 875.487183,735.379761 870.727173,738.261719 
	C822.134766,767.682434 773.595093,797.190308 725.047058,826.684387 
	C659.985291,866.211121 594.963684,905.804260 529.847778,945.241821 
	C512.148438,955.961487 514.837463,956.573669 496.951752,945.701416 
	C449.972656,917.144043 403.014404,888.552246 356.021759,860.017273 
	C298.634949,825.170654 241.221924,790.367188 183.819092,755.547058 
	C174.560974,749.931152 165.354752,744.226257 156.012634,738.753540 
	C150.751831,735.671692 148.540512,731.581421 148.546753,725.287292 
	C148.686844,584.137329 148.703827,442.987091 148.512436,301.837219 
	C148.502472,294.496918 151.201080,290.269928 157.271317,286.597168 
	C228.824387,243.304504 300.263550,199.823517 371.731415,156.390030 
	C415.434479,129.830170 459.198334,103.369217 502.774292,76.602364 
	C509.904602,72.222488 515.718506,72.099266 522.987183,76.545845 
	C589.068665,116.971100 655.338501,157.088501 721.546326,197.307205 
	C770.811401,227.233765 820.031433,257.234650 869.371155,287.037476 
	C875.324036,290.633179 877.986206,295.245056 877.941345,302.117401 
	C877.689331,340.772552 877.527344,379.428711 877.494934,418.084656 
	C877.477600,438.742828 877.923889,459.401337 877.910583,480.059540 
	C877.887085,516.715759 877.567749,553.371887 877.566711,590.028015 
	C877.565613,630.517944 877.783142,671.007935 877.903687,711.997314 
M739.580688,697.500610 
	C739.397339,690.164429 740.069641,682.775574 739.045044,674.579102 
	C709.000122,692.815063 679.979126,710.429565 650.228516,728.486877 
	C680.216187,746.688843 709.277222,764.328369 739.576904,782.719788 
	C739.576904,753.685120 739.576904,726.092712 739.580688,697.500610 
M730.581909,536.156555 
	C704.017944,552.287842 677.453918,568.419128 650.231750,584.950073 
	C680.113770,603.077209 709.288757,620.775452 738.928528,638.755615 
	C738.928528,602.623840 738.928528,567.468323 738.928528,532.087036 
	C735.447388,532.581360 733.564575,534.673645 730.581909,536.156555 
M692.532715,466.896637 
	C707.665161,476.111450 722.797607,485.326294 738.886841,495.123688 
	C738.886841,458.627869 738.886841,423.567902 738.886841,387.556183 
	C708.949585,405.705750 679.973755,423.272400 650.201721,441.321808 
	C664.629944,450.046021 678.265259,458.290802 692.532715,466.896637 
M845.803284,703.647583 
	C849.456787,705.822266 853.110352,707.997009 857.255127,710.464111 
	C857.255127,674.254150 857.255127,638.857483 857.255127,602.776733 
	C827.417908,620.911682 798.233643,638.649780 768.455322,656.748840 
	C794.572693,672.583252 819.876221,687.924255 845.803284,703.647583 
M845.336060,322.898773 
	C819.997009,338.285156 794.657959,353.671539 768.477844,369.568634 
	C798.777039,387.950104 827.832520,405.577087 857.256409,423.427521 
	C857.256409,387.052979 857.256409,351.718079 857.256409,315.771759 
	C853.076111,318.262512 849.513855,320.385010 845.336060,322.898773 
M828.079895,549.364624 
	C837.561401,555.107056 847.042908,560.849487 857.297974,567.060486 
	C857.297974,530.721497 857.297974,495.434418 857.297974,459.190918 
	C827.508667,477.303986 798.460632,494.966248 768.526794,513.167175 
	C788.837646,525.510315 808.149658,537.246399 828.079895,549.364624 
M249.955002,684.480835 
	C226.139481,698.950256 202.323975,713.419617 177.461121,728.525391 
	C207.655014,746.843689 236.764877,764.504333 266.220032,782.374451 
	C266.220032,746.089844 266.220032,710.923340 266.220032,674.593811 
	C260.417908,678.133423 255.504150,681.131042 249.955002,684.480835 
M658.853638,292.414154 
	C656.568115,294.379547 653.011536,294.786621 651.424500,298.360260 
	C680.470947,315.994019 709.310303,333.502106 739.016357,351.536316 
	C739.016357,315.293274 739.016357,280.002045 739.016357,243.803391 
	C712.061035,260.157532 685.773865,276.106354 658.853638,292.414154 
M230.761703,473.682465 
	C242.340500,480.695312 253.919296,487.708130 266.268066,495.187317 
	C266.268066,458.723450 266.268066,423.462280 266.268066,387.373657 
	C236.528030,405.463684 207.513031,423.112671 177.579651,441.320312 
	C195.797089,452.417175 212.961273,462.872467 230.761703,473.682465 
M229.732071,616.703125 
	C241.734634,623.954163 253.737198,631.205200 266.326965,638.810974 
	C266.326965,602.475159 266.326965,567.315369 266.326965,531.009460 
	C236.503876,549.125122 207.506912,566.738892 177.563599,584.927551 
	C195.403152,595.800476 212.252884,606.070068 229.732071,616.703125 
M827.457947,572.098083 
	C805.066650,558.541565 782.675354,544.985046 759.843750,531.161987 
	C759.843750,567.429749 759.843750,602.691406 759.843750,638.767273 
	C789.553040,620.730652 818.487244,603.164673 848.391602,585.009644 
	C840.977844,580.435242 834.527344,576.455200 827.457947,572.098083 
M760.357361,781.176514 
	C762.492188,781.131287 764.041077,779.770630 765.727600,778.748169 
	C789.772949,764.169983 813.834656,749.618530 837.821045,734.943909 
	C841.013428,732.990784 844.674805,731.603516 847.698914,727.995483 
	C818.446411,710.248779 789.485718,692.679199 760.475464,675.079407 
	C759.014038,677.677063 759.316223,679.379517 759.314880,681.010193 
	C759.289246,712.967651 759.289490,744.925110 759.315247,776.882568 
	C759.316284,778.185913 759.617004,779.489014 760.357361,781.176514 
M786.079468,335.527649 
	C806.507385,323.115631 826.935303,310.703613 848.480652,297.612640 
	C818.494690,279.416931 789.567932,261.864014 759.802979,243.802444 
	C759.802979,280.115051 759.802979,315.396240 759.802979,351.505249 
	C768.752686,346.058075 777.102173,340.976227 786.079468,335.527649 
M245.065521,256.601166 
	C222.939941,270.067352 200.814362,283.533539 177.621826,297.649078 
	C207.506058,315.821808 236.443893,333.419037 266.144287,351.479950 
	C266.144287,315.011414 266.144287,279.930817 266.144287,243.909836 
	C258.752136,248.361542 252.220795,252.294815 245.065521,256.601166 
M347.076813,567.465149 
	C327.248230,555.468933 307.419617,543.472778 286.948181,531.087646 
	C286.948181,567.539856 286.948181,602.806824 286.948181,638.870667 
	C316.732452,620.756775 345.741272,603.114502 375.627777,584.938416 
	C365.537598,578.766663 356.616364,573.309937 347.076813,567.465149 
M759.326904,402.532043 
	C759.326904,433.043610 759.326904,463.555176 759.326904,495.449097 
	C789.599426,477.061981 818.585449,459.456299 848.513611,441.278351 
	C818.501709,423.097961 789.585327,405.581177 760.106689,387.723816 
	C758.875549,392.968109 759.463440,397.284668 759.326904,402.532043 
M168.305649,678.499939 
	C168.305649,688.832214 168.305649,699.164490 168.305649,710.801758 
	C198.874954,692.278076 227.861526,674.713501 257.548584,656.724426 
	C227.752548,638.650940 198.645309,620.995178 168.307465,602.593018 
	C168.307465,628.355225 168.307465,652.927551 168.305649,678.499939 
M200.221008,478.334717 
	C190.001709,472.154694 179.782425,465.974640 168.813080,459.341034 
	C168.813080,495.462830 168.813080,530.763306 168.813080,567.007141 
	C198.590973,548.904541 227.581558,531.280518 257.402069,513.152039 
	C237.754837,501.190552 219.297073,489.953247 200.221008,478.334717 
M236.068970,382.528595 
	C242.831543,378.391663 249.594116,374.254761 257.389740,369.485901 
	C227.514374,351.350098 198.607758,333.802399 168.934052,315.789001 
	C168.934052,351.948517 168.934052,387.143829 168.934052,423.241180 
	C191.691071,409.445801 213.571640,396.181702 236.068970,382.528595 
M343.923309,627.459839 
	C328.114838,637.066162 312.306366,646.672424 295.729919,656.745422 
	C325.806641,675.007812 354.833557,692.632751 384.376099,710.570862 
	C384.376099,674.380615 384.376099,639.228149 384.376099,602.924805 
	C370.570953,611.302856 357.561676,619.197998 343.923309,627.459839 
M350.549103,402.911774 
	C361.696167,409.299957 372.278320,416.682098 384.374786,422.911865 
	C384.374786,386.988190 384.374786,352.019409 384.374786,315.716095 
	C354.524109,333.839996 325.556274,351.427856 295.734222,369.534393 
	C314.491272,380.954285 332.210052,391.742035 350.549103,402.911774 
M384.750854,815.500000 
	C384.750854,792.802979 384.750854,770.105896 384.750854,746.299866 
	C354.667114,764.566956 325.708466,782.150818 295.681458,800.383484 
	C325.652710,818.559631 354.647186,836.143433 384.750549,854.399658 
	C384.750549,840.728699 384.750549,828.614319 384.750854,815.500000 
M325.872772,207.415558 
	C316.147339,213.384201 306.421875,219.352859 295.837860,225.848419 
	C325.749634,244.021927 354.763031,261.649597 384.357971,279.630585 
	C384.357971,243.454437 384.357971,208.306137 384.357971,172.036514 
	C364.547974,184.043579 345.535400,195.567307 325.872772,207.415558 
M376.559723,464.117554 
	C349.898590,480.288452 323.237427,496.459351 295.696533,513.163879 
	C325.744354,531.388733 354.752808,548.983276 384.257263,566.878601 
	C384.257263,530.480896 384.257263,495.366119 384.257263,459.534210 
	C381.425293,461.201385 379.292206,462.457123 376.559723,464.117554 
M684.550720,629.008057 
	C670.464783,620.435547 656.378845,611.863098 641.643311,602.895264 
	C641.643311,639.421326 641.643311,674.568115 641.643311,710.596985 
	C671.434570,692.482178 700.440247,674.845032 730.306641,656.684570 
	C714.480713,647.103333 699.832275,638.234985 684.550720,629.008057 
M344.961792,422.579895 
	C325.796967,410.971344 306.632172,399.362793 286.777588,387.336426 
	C286.777588,423.549072 286.777588,458.867249 286.777588,495.334625 
	C316.554779,477.229828 345.540131,459.606445 375.604065,441.327332 
	C364.800171,434.720459 355.189484,428.843262 344.961792,422.579895 
M644.004639,747.894775 
	C638.821350,746.148376 641.251038,750.545471 641.244812,751.862610 
	C641.093994,783.831848 641.125427,815.802002 641.173462,847.771973 
	C641.176086,849.518982 640.672058,851.436768 642.577759,853.620789 
	C671.490173,836.050659 700.460449,818.445312 730.224182,800.357727 
	C700.853027,782.481201 672.720215,765.358276 644.004639,747.894775 
M654.845764,323.692291 
	C650.592102,321.173859 646.338440,318.655396 641.516052,315.800232 
	C641.516052,351.880280 641.516052,387.204285 641.516052,423.473663 
	C671.274475,405.368713 700.311646,387.702545 730.215210,369.509338 
	C704.644043,353.967285 680.055237,339.022278 654.845764,323.692291 
M666.938293,474.593353 
	C658.721130,469.665619 650.504028,464.737915 641.722351,459.471680 
	C641.722351,495.580200 641.722351,530.793884 641.722351,566.943909 
	C671.512207,548.837646 700.432556,531.259827 730.200928,513.166626 
	C708.683655,500.045532 688.122864,487.507690 666.938293,474.593353 
M666.866333,264.361176 
	C687.696716,251.693115 708.527161,239.025070 730.222900,225.830750 
	C700.235046,207.652267 671.280823,190.100357 641.649048,172.137726 
	C641.649048,208.528809 641.649048,243.664825 641.649048,279.677734 
	C650.365051,274.380615 658.302124,269.556885 666.866333,264.361176 
M461.799683,699.335876 
	C446.097809,708.893738 430.395935,718.451599 413.882324,728.503540 
	C443.883850,746.736572 472.940979,764.395691 502.441589,782.324341 
	C502.441589,746.300049 502.441589,711.146790 502.441589,674.758911 
	C488.500031,683.202515 475.469147,691.094543 461.799683,699.335876 
M326.178986,698.368164 
	C313.294800,690.585327 300.410614,682.802490 286.607544,674.464600 
	C286.908508,710.992737 286.060547,746.200928 286.967651,782.434387 
	C316.961914,764.196167 345.927002,746.583740 375.669464,728.498596 
	C358.859955,718.269470 342.827820,708.513428 326.178986,698.368164 
M454.485229,465.938751 
	C470.206940,475.484283 485.928650,485.029846 502.282837,494.959381 
	C502.282837,458.868835 502.282837,423.836884 502.282837,387.618011 
	C472.452667,405.716400 443.650665,423.190979 413.877960,441.254517 
	C427.811584,449.738037 440.829041,457.663757 454.485229,465.938751 
M477.080719,115.641678 
	C456.298676,128.266296 435.516663,140.890915 413.930481,154.004044 
	C444.061188,172.318420 472.978455,189.895218 502.383179,207.768326 
	C502.383179,171.565277 502.383179,136.418732 502.383179,100.233902 
	C493.577118,105.600731 485.643158,110.436066 477.080719,115.641678 
M502.921997,313.500000 
	C502.921997,290.662506 502.921997,267.825043 502.921997,243.610855 
	C472.579865,262.023193 443.659424,279.572845 413.851868,297.660797 
	C443.751404,315.822021 472.786987,333.458466 502.920288,351.761688 
	C502.920288,338.620148 502.920288,326.560059 502.921997,313.500000 
M498.726837,923.605408 
	C499.892059,924.077148 500.786713,925.424561 502.446167,924.683899 
	C502.446167,889.572937 502.446167,854.433167 502.446167,818.306152 
	C472.643494,836.395935 443.645996,853.997009 413.883728,872.062317 
	C442.675598,889.550537 470.401062,906.391052 498.726837,923.605408 
M483.824036,542.375122 
	C460.741669,556.387756 437.659302,570.400391 413.832550,584.864868 
	C443.899323,603.087097 472.930817,620.681885 502.340607,638.505981 
	C502.340607,602.353210 502.340607,567.250427 502.340607,531.201172 
	C495.802673,535.154541 490.129761,538.584900 483.824036,542.375122 
M523.182068,870.500000 
	C523.182068,888.552429 523.182068,906.604858 523.182068,926.017761 
	C553.351562,907.724487 582.351929,890.140137 612.160583,872.065735 
	C582.128540,853.843872 553.144836,836.258057 523.182251,818.078308 
	C523.182251,836.256592 523.182251,852.878296 523.182068,870.500000 
M523.145630,192.490875 
	C523.394287,197.222794 522.515625,202.018829 523.849304,207.584946 
	C553.318970,189.672089 582.312439,172.048706 612.064636,153.964142 
	C582.186768,135.823120 553.261841,118.260696 523.143616,99.973763 
	C523.143616,131.412460 523.143616,161.453491 523.145630,192.490875 
M592.101807,740.558350 
	C598.474731,736.711609 604.847717,732.864929 612.137451,728.464783 
	C582.297974,710.373901 553.311890,692.800354 523.696411,674.845276 
	C523.696411,711.231812 523.696411,746.206177 523.696411,782.211365 
	C546.889160,768.100098 569.192749,754.529846 592.101807,740.558350 
M583.392883,458.861938 
	C592.651733,453.144379 601.910645,447.426849 612.000549,441.196106 
	C582.114685,423.065094 553.169800,405.504913 523.558167,387.540222 
	C523.558167,423.653687 523.558167,458.790924 523.558167,494.962677 
	C543.826172,482.737396 563.301392,470.990326 583.392883,458.861938 
M590.099792,571.447998 
	C568.126587,558.131470 546.153442,544.814941 523.634399,531.167603 
	C523.634399,567.465637 523.634399,602.609497 523.634399,638.585876 
	C553.324707,620.543030 582.249451,602.965393 612.101257,584.824341 
	C604.295471,580.093994 597.499512,575.975586 590.099792,571.447998 
M569.862244,323.352875 
	C583.606445,314.973206 597.350647,306.593567 612.057861,297.626770 
	C582.207275,279.524017 553.217285,261.943237 523.439331,243.884552 
	C523.439331,280.378540 523.439331,315.421661 523.439331,351.474548 
	C539.166565,341.938721 554.197083,332.825348 569.862244,323.352875 
M333.544952,272.007660 
	C318.242493,262.741669 302.940002,253.475693 286.813965,243.711014 
	C286.813965,280.196228 286.813965,315.502289 286.813965,351.648834 
	C316.610413,333.543915 345.786621,315.815887 375.708130,297.635010 
	C361.386719,288.927155 347.778534,280.652985 333.544952,272.007660 
M620.981018,611.646851 
	C620.773132,609.096680 621.524658,606.406921 619.883789,603.366211 
	C590.656738,621.122009 561.744934,638.686218 532.036560,656.734375 
	C561.969116,674.897156 591.012329,692.520264 620.966919,710.696411 
	C620.966919,677.164612 620.966919,644.886047 620.981018,611.646851 
M620.963196,228.500000 
	C620.963196,210.108231 620.963196,191.716461 620.963196,171.948883 
	C590.711731,190.298141 561.705627,207.892029 532.056030,225.876221 
	C561.968933,244.062637 590.901550,261.653046 620.963806,279.930267 
	C620.963806,262.297363 620.963806,245.898682 620.963196,228.500000 
M615.146851,749.776489 
	C587.756165,766.437256 560.365479,783.097961 532.089783,800.297058 
	C561.873169,818.389954 590.780457,835.950623 620.528320,854.021973 
	C620.528320,817.771301 620.528320,782.652893 620.528320,747.498352 
	C618.375183,747.334595 617.209106,748.732483 615.146851,749.776489 
M605.129028,468.667969 
	C581.004517,483.335663 556.879944,498.003387 532.068054,513.089050 
	C561.903625,531.199463 590.917358,548.811035 620.530029,566.786194 
	C620.530029,530.419678 620.530029,495.404144 620.530029,459.939667 
	C614.778931,462.129913 610.611816,465.834808 605.129028,468.667969 
M620.948242,326.564392 
	C620.723877,323.345398 621.504639,320.015991 620.050110,316.111389 
	C590.646179,333.954529 561.729553,351.501984 532.074524,369.497498 
	C561.953308,387.656403 591.015808,405.319153 620.946106,423.509338 
	C620.946106,390.754211 620.946106,359.150085 620.948242,326.564392 
M468.322205,641.226440 
	C447.629974,628.656921 426.937714,616.087402 405.414978,603.013428 
	C405.414978,639.287964 405.414978,674.393738 405.414978,710.421814 
	C435.129669,692.375793 464.109924,674.775818 493.846741,656.716370 
	C484.843384,651.233765 476.905151,646.399780 468.322205,641.226440 
M405.010101,812.500000 
	C405.010101,825.903870 405.010101,839.307739 405.010101,854.229492 
	C435.233978,835.876038 464.148773,818.317444 493.874207,800.266602 
	C464.019379,782.150391 434.985016,764.532104 405.011169,746.343689 
	C405.011169,768.919800 405.011169,790.209900 405.010101,812.500000 
M439.526611,480.020447 
	C428.349365,473.285065 417.172119,466.549652 405.450958,459.486511 
	C405.450958,495.616028 405.450958,530.634888 405.450958,566.776184 
	C435.155548,548.716797 464.000793,531.179810 493.793549,513.066833 
	C475.081909,501.668671 457.616058,491.029419 439.526611,480.020447 
M404.971497,267.462830 
	C405.208374,271.184845 404.462646,274.987335 405.672424,279.435913 
	C435.120331,261.549103 464.048126,243.978195 493.865692,225.866852 
	C464.057953,207.799728 435.079163,190.235046 404.971710,171.986267 
	C404.971710,204.587845 404.971710,235.531250 404.971497,267.462830 
M442.955902,338.578705 
	C430.557343,331.410553 418.738251,323.219574 405.478271,316.423584 
	C405.478271,352.254364 405.478271,387.104889 405.478271,423.159119 
	C435.275238,405.063324 464.161438,387.520660 493.831116,369.502167 
	C476.532562,358.991730 460.053436,348.979126 442.955902,338.578705 
z"/>
</svg>